<svg preserveAspectRatio="none" width="100%" height="100%" overflow="visible" style="display: block;" viewBox="0 0 14.3333 16" fill="none" xmlns="http://www.w3.org/2000/svg">
<path id="Vector 57" d="M13.8333 8V11.5C13.8333 13.3856 13.8333 14.3284 13.2475 14.9142C12.6618 15.5 11.719 15.5 9.83333 15.5H2.58333C1.43274 15.5 0.500001 14.5673 0.500001 13.4167M0.500001 13.4167V4.5C0.500001 2.61438 0.500001 1.67157 1.08579 1.08579C1.67157 0.500001 2.61438 0.500001 4.5 0.500001H9.83333C11.719 0.500001 12.6618 0.500001 13.2475 1.08579C13.8333 1.67157 13.8333 2.61438 13.8333 4.5V7.33333C13.8333 9.21895 13.8333 10.1618 13.2475 10.7475C12.6618 11.3333 11.719 11.3333 9.83334 11.3333H2.58333C1.43274 11.3333 0.500001 12.2661 0.500001 13.4167Z" stroke="var(--stroke-0, #666A74)"/>
</svg>
