<svg preserveAspectRatio="none" width="100%" height="100%" overflow="visible" style="display: block;" viewBox="0 0 25 11.5071" fill="none" xmlns="http://www.w3.org/2000/svg">
<path id="Vector" d="M12.6114 0C6.345 0.0012098 0.702873 2.13853 0.0580472 5.00295C-0.370627 6.90839 1.61628 8.86303 4.65289 10.0067C8.20487 6.77975 12.2222 3.36568 17.4631 1.02067C12.6856 4.09479 9.16142 7.47256 6.29056 10.5612C7.25598 10.8136 8.31093 11.0447 9.42839 11.1729C11.0419 8.68196 12.838 5.58244 18.1434 1.07108C14.2894 5.70584 12.4916 8.45815 10.935 11.3673C16.6715 11.8807 23.3464 11.1617 24.9365 6.12484C25.6232 3.06887 20.6634 0.346811 13.8712 0.0371007C13.4516 0.0151469 13.0315 0.00277682 12.6114 0ZM12.3843 0.466178C14.9274 0.43674 16.9211 0.718221 16.9211 0.718221C11.9908 2.48292 8.517 4.28916 3.94112 6.88056C3.98548 6.92492 0.330254 6.34946 2.95795 3.32696C4.94122 1.04527 9.11505 0.504085 12.3843 0.466178ZM18.8241 1.31062C18.8241 1.31062 22.1612 1.73325 22.983 4.68799C23.8872 7.94156 15.3169 9.24613 14.741 8.75818C16.3267 4.92552 16.7949 4.89285 18.8241 1.31062Z" fill="var(--fill-0, #FF0000)"/>
</svg>
