<svg preserveAspectRatio="none" width="100%" height="100%" overflow="visible" style="display: block;" viewBox="0 0 145.533 18.078" fill="none" xmlns="http://www.w3.org/2000/svg">
<g id="ConvergenSEE">
<path id="Vector" d="M133.754 14.3434V0.246259H145.389V3.11904H137.428V5.7661H144.384V8.57732H137.428V11.4706H145.533V14.3434H133.754Z" fill="var(--fill-0, #34CC32)"/>
<path id="Vector_2" d="M119.407 14.3434V0.246259H131.041V3.11904H123.08V5.7661H130.036V8.57732H123.08V11.4706H131.185V14.3434H119.407Z" fill="var(--fill-0, #34CC32)"/>
<path id="Vector_3" d="M110.906 14.5896C110.017 14.5896 109.182 14.5076 108.403 14.3434C107.623 14.1929 106.932 13.9398 106.33 13.5842C105.742 13.2285 105.277 12.7634 104.935 12.1888C104.593 11.6006 104.422 10.8824 104.422 10.0342C104.422 9.97951 104.422 9.91795 104.422 9.84955C104.422 9.78115 104.429 9.72643 104.442 9.68539H107.992C107.992 9.72643 107.985 9.78115 107.972 9.84955C107.972 9.90427 107.972 9.95215 107.972 9.99319C107.972 10.4309 108.081 10.7866 108.3 11.0602C108.533 11.3201 108.854 11.5117 109.264 11.6348C109.675 11.7442 110.154 11.7989 110.701 11.7989C111.002 11.7989 111.282 11.7853 111.542 11.7579C111.802 11.7305 112.035 11.6827 112.24 11.6143C112.445 11.5459 112.623 11.4638 112.773 11.368C112.938 11.2586 113.054 11.1355 113.122 10.9987C113.204 10.8482 113.245 10.6772 113.245 10.4857C113.245 10.171 113.122 9.91111 112.876 9.70591C112.643 9.50072 112.322 9.32972 111.912 9.19292C111.515 9.05612 111.063 8.92616 110.557 8.80304C110.051 8.67992 109.524 8.54996 108.977 8.41316C108.43 8.27637 107.903 8.10537 107.397 7.90017C106.891 7.69497 106.433 7.43505 106.022 7.12041C105.626 6.80578 105.304 6.4159 105.058 5.95078C104.825 5.47199 104.709 4.89743 104.709 4.22712C104.709 3.4884 104.866 2.85229 105.181 2.31877C105.496 1.77158 105.927 1.32698 106.474 0.984981C107.035 0.642984 107.678 0.396745 108.403 0.246267C109.128 0.0821078 109.901 2.82288e-05 110.721 2.82288e-05C111.529 2.82288e-05 112.281 0.0821078 112.979 0.246267C113.69 0.410426 114.319 0.670344 114.866 1.02602C115.414 1.36802 115.838 1.80578 116.139 2.33929C116.453 2.85913 116.617 3.4884 116.631 4.22712V4.47335H113.102V4.32972C113.102 4.01508 113.013 3.74148 112.835 3.50892C112.671 3.26268 112.418 3.07117 112.076 2.93437C111.734 2.78389 111.31 2.70865 110.803 2.70865C110.297 2.70865 109.866 2.75653 109.511 2.85229C109.169 2.94805 108.902 3.08484 108.71 3.26268C108.533 3.44052 108.444 3.65256 108.444 3.8988C108.444 4.19976 108.56 4.44599 108.793 4.63751C109.039 4.82903 109.367 4.99319 109.778 5.12999C110.188 5.26679 110.646 5.39675 111.152 5.51987C111.658 5.62931 112.178 5.75242 112.712 5.88922C113.259 6.01234 113.786 6.1765 114.292 6.3817C114.798 6.57322 115.256 6.8263 115.667 7.14093C116.077 7.44189 116.399 7.81809 116.631 8.26953C116.877 8.72096 117 9.26816 117 9.91111C117 11.0329 116.734 11.9357 116.2 12.6197C115.68 13.3037 114.955 13.803 114.025 14.1177C113.109 14.4323 112.069 14.5896 110.906 14.5896Z" fill="var(--fill-0, #34CC32)"/>
<path id="Vector_4" d="M92.8696 14.3434V3.54996H94.9627L95.1679 4.98634H95.3115C95.5577 4.65803 95.845 4.37075 96.1733 4.12451C96.5153 3.86459 96.8984 3.66624 97.3224 3.52944C97.7602 3.37896 98.239 3.30372 98.7588 3.30372C99.4428 3.30372 100.045 3.42684 100.565 3.67308C101.098 3.91931 101.515 4.31603 101.816 4.86323C102.117 5.41042 102.268 6.1423 102.268 7.05885V14.3434H99.7438V7.51029C99.7438 7.12725 99.6959 6.81261 99.6001 6.56637C99.5181 6.30646 99.3881 6.10126 99.2103 5.95078C99.0461 5.78662 98.8409 5.67034 98.5947 5.60194C98.3484 5.53354 98.0748 5.49934 97.7739 5.49934C97.3224 5.49934 96.912 5.60878 96.5427 5.82766C96.187 6.04654 95.8997 6.34749 95.6809 6.73053C95.4757 7.11357 95.3731 7.55816 95.3731 8.06432V14.3434H92.8696Z" fill="var(--fill-0, white)"/>
<path id="Vector_5" d="M86.0049 14.5896C84.8558 14.5896 83.8982 14.3913 83.1321 13.9946C82.366 13.5842 81.7915 12.9617 81.4084 12.1273C81.0254 11.2928 80.8339 10.2326 80.8339 8.94667C80.8339 7.64708 81.0254 6.58689 81.4084 5.7661C81.7915 4.93163 82.366 4.31603 83.1321 3.91931C83.8982 3.50892 84.8558 3.30372 86.0049 3.30372C87.0446 3.30372 87.9132 3.50208 88.6109 3.89879C89.3223 4.28183 89.8558 4.87691 90.2115 5.68402C90.5671 6.49113 90.745 7.53765 90.745 8.82356V9.56227H83.3989C83.4262 10.2326 83.5288 10.8003 83.7067 11.2654C83.8845 11.7169 84.1581 12.0589 84.5275 12.2914C84.9105 12.5103 85.4098 12.6197 86.0254 12.6197C86.34 12.6197 86.6342 12.5787 86.9078 12.4966C87.1814 12.4145 87.4208 12.2914 87.626 12.1273C87.8312 11.9494 87.9885 11.7305 88.0979 11.4706C88.221 11.2107 88.2826 10.9097 88.2826 10.5677H90.745C90.745 11.2517 90.6218 11.8468 90.3756 12.353C90.1431 12.8591 89.8079 13.2764 89.3701 13.6047C88.9461 13.933 88.4467 14.1792 87.8722 14.3434C87.2976 14.5076 86.6752 14.5896 86.0049 14.5896ZM83.4399 7.79756H88.1389C88.1389 7.34613 88.0842 6.96309 87.9748 6.64845C87.879 6.33381 87.7354 6.0739 87.5439 5.8687C87.366 5.6635 87.1472 5.51986 86.8872 5.43778C86.6273 5.34202 86.3332 5.29414 86.0049 5.29414C85.4714 5.29414 85.0199 5.38306 84.6506 5.5609C84.2949 5.73874 84.0213 6.01234 83.8298 6.38169C83.6383 6.75105 83.5083 7.22301 83.4399 7.79756Z" fill="var(--fill-0, white)"/>
<path id="Vector_6" d="M71.0285 18.078C70.5497 18.078 70.0983 17.9822 69.6742 17.7907C69.2501 17.5992 68.9081 17.3119 68.6482 16.9289C68.3883 16.5595 68.2583 16.1013 68.2583 15.5541C68.2583 14.9522 68.4294 14.4802 68.7713 14.1382C69.127 13.7825 69.5169 13.5158 69.941 13.3379C69.6263 13.1738 69.3664 12.9549 69.1612 12.6813C68.9697 12.4077 68.8739 12.0794 68.8739 11.6963C68.8739 11.1765 69.0655 10.7661 69.4485 10.4651C69.8315 10.1505 70.2693 9.94531 70.7618 9.84955C70.2556 9.53491 69.8657 9.13136 69.5921 8.63888C69.3322 8.14641 69.2023 7.58553 69.2023 6.95625C69.2023 6.20386 69.3801 5.56091 69.7358 5.02739C70.1051 4.48019 70.6387 4.05612 71.3363 3.75516C72.034 3.4542 72.8753 3.30372 73.8603 3.30372C74.257 3.30372 74.64 3.33108 75.0094 3.3858C75.3787 3.44052 75.7139 3.5226 76.0149 3.63204C76.4936 3.34476 76.822 3.02328 76.9998 2.66761C77.1776 2.29825 77.2734 1.99729 77.2871 1.76473H79.7289C79.7289 2.24353 79.6332 2.66761 79.4417 3.03697C79.2638 3.40632 79.0107 3.71412 78.6824 3.96036C78.3541 4.19292 77.9574 4.36391 77.4923 4.47335C77.8343 4.77431 78.0942 5.13683 78.272 5.5609C78.4499 5.98498 78.5388 6.4501 78.5388 6.95625C78.5388 7.70865 78.361 8.35844 78.0053 8.90564C77.6633 9.45284 77.1503 9.87691 76.4663 10.1779C75.796 10.4788 74.9683 10.6293 73.9834 10.6293H72.3213C72.034 10.6293 71.8083 10.6909 71.6441 10.814C71.4936 10.9371 71.4184 11.1081 71.4184 11.327C71.4184 11.5048 71.4868 11.6621 71.6236 11.7989C71.7741 11.9357 71.9793 12.0041 72.2392 12.0041H76.9588C77.7659 12.0041 78.4293 12.2709 78.9492 12.8044C79.4827 13.3242 79.7495 13.9946 79.7495 14.8154C79.7495 15.4309 79.5853 15.985 79.257 16.4775C78.9423 16.9699 78.4978 17.3598 77.9232 17.6471C77.3486 17.9344 76.6783 18.078 75.9122 18.078H71.0285ZM71.9314 16.2723H75.8917C76.1516 16.2723 76.3774 16.2244 76.5689 16.1286C76.7741 16.0465 76.9314 15.9234 77.0408 15.7593C77.164 15.5951 77.2255 15.4104 77.2255 15.2052C77.2255 14.8496 77.1092 14.5828 76.8767 14.405C76.6578 14.2271 76.3842 14.1382 76.0559 14.1382H71.9314C71.6031 14.1382 71.3295 14.234 71.1106 14.4255C70.8917 14.6307 70.7823 14.8906 70.7823 15.2052C70.7823 15.5199 70.8849 15.7729 71.0901 15.9645C71.309 16.1697 71.5894 16.2723 71.9314 16.2723ZM73.8808 8.8646C74.6058 8.8646 75.1462 8.70044 75.5019 8.37212C75.8712 8.03013 76.0559 7.55817 76.0559 6.95625C76.0559 6.35434 75.8712 5.88922 75.5019 5.5609C75.1462 5.23259 74.6058 5.06843 73.8808 5.06843C73.1558 5.06843 72.6086 5.23259 72.2392 5.5609C71.8835 5.88922 71.7057 6.35434 71.7057 6.95625C71.7057 7.35297 71.7809 7.69497 71.9314 7.98225C72.0956 8.26952 72.335 8.4884 72.6496 8.63888C72.9779 8.78936 73.3883 8.8646 73.8808 8.8646Z" fill="var(--fill-0, white)"/>
<path id="Vector_7" d="M61.8091 14.3434V3.54996H63.9021L64.1073 5.2531H64.2509C64.3877 4.91111 64.5519 4.59647 64.7434 4.30919C64.9486 4.00823 65.2085 3.76883 65.5232 3.591C65.8378 3.39948 66.2208 3.30372 66.6723 3.30372C66.8912 3.30372 67.0895 3.32424 67.2674 3.36528C67.4589 3.40632 67.6025 3.44736 67.6983 3.4884V5.84818H66.939C66.515 5.84818 66.1388 5.90974 65.8105 6.03286C65.4821 6.1423 65.2017 6.32014 64.9691 6.56637C64.7503 6.81261 64.5861 7.12041 64.4767 7.48977C64.3672 7.85912 64.3125 8.29004 64.3125 8.78252V14.3434H61.8091Z" fill="var(--fill-0, white)"/>
<path id="Vector_8" d="M54.9443 14.5896C53.7952 14.5896 52.8376 14.3913 52.0716 13.9946C51.3055 13.5842 50.7309 12.9617 50.3479 12.1273C49.9649 11.2928 49.7733 10.2326 49.7733 8.94667C49.7733 7.64708 49.9649 6.58689 50.3479 5.7661C50.7309 4.93163 51.3055 4.31603 52.0716 3.91931C52.8376 3.50892 53.7952 3.30372 54.9443 3.30372C55.984 3.30372 56.8527 3.50208 57.5504 3.89879C58.2617 4.28183 58.7952 4.87691 59.1509 5.68402C59.5066 6.49113 59.6844 7.53765 59.6844 8.82356V9.56227H52.3383C52.3657 10.2326 52.4683 10.8003 52.6461 11.2654C52.824 11.7169 53.0976 12.0589 53.4669 12.2914C53.85 12.5103 54.3493 12.6197 54.9649 12.6197C55.2795 12.6197 55.5736 12.5787 55.8472 12.4966C56.1208 12.4145 56.3602 12.2914 56.5654 12.1273C56.7706 11.9494 56.9279 11.7305 57.0374 11.4706C57.1605 11.2107 57.222 10.9097 57.222 10.5677H59.6844C59.6844 11.2517 59.5613 11.8468 59.3151 12.353C59.0825 12.8591 58.7474 13.2764 58.3096 13.6047C57.8855 13.933 57.3862 14.1792 56.8116 14.3434C56.2371 14.5076 55.6147 14.5896 54.9443 14.5896ZM52.3794 7.79756H57.0784C57.0784 7.34613 57.0237 6.96309 56.9142 6.64845C56.8185 6.33381 56.6748 6.0739 56.4833 5.8687C56.3055 5.6635 56.0866 5.51986 55.8267 5.43778C55.5668 5.34202 55.2727 5.29414 54.9443 5.29414C54.4108 5.29414 53.9594 5.38306 53.59 5.5609C53.2344 5.73874 52.9608 6.01234 52.7692 6.38169C52.5777 6.75105 52.4478 7.22301 52.3794 7.79756Z" fill="var(--fill-0, white)"/>
<path id="Vector_9" d="M42.2162 14.3434L38.2148 3.54997H40.8414L42.5856 8.41317C42.6676 8.64573 42.7634 8.96037 42.8728 9.35709C42.996 9.74012 43.1191 10.1437 43.2422 10.5678C43.3653 10.9782 43.4679 11.3544 43.55 11.6963H43.6526C43.7347 11.3817 43.8304 11.0192 43.9399 10.6088C44.0493 10.1984 44.1588 9.79484 44.2682 9.39813C44.3913 9.00141 44.5008 8.67309 44.5965 8.41317L46.3202 3.54997H48.8646L44.8428 14.3434H42.2162Z" fill="var(--fill-0, white)"/>
<path id="Vector_10" d="M27.4629 14.3434V3.54996H29.5559L29.7611 4.98634H29.9048C30.151 4.65803 30.4383 4.37075 30.7666 4.12451C31.1086 3.86459 31.4916 3.66624 31.9157 3.52944C32.3535 3.37896 32.8322 3.30372 33.3521 3.30372C34.0361 3.30372 34.638 3.42684 35.1578 3.67308C35.6913 3.91931 36.1086 4.31603 36.4095 4.86323C36.7105 5.41042 36.861 6.1423 36.861 7.05885V14.3434H34.337V7.51029C34.337 7.12725 34.2892 6.81261 34.1934 6.56637C34.1113 6.30646 33.9814 6.10126 33.8035 5.95078C33.6394 5.78662 33.4342 5.67034 33.1879 5.60194C32.9417 5.53354 32.6681 5.49934 32.3671 5.49934C31.9157 5.49934 31.5053 5.60878 31.1359 5.82766C30.7803 6.04654 30.493 6.34749 30.2741 6.73053C30.0689 7.11357 29.9663 7.55816 29.9663 8.06432V14.3434H27.4629Z" fill="var(--fill-0, white)"/>
<path id="Vector_11" d="M20.0004 14.5896C18.824 14.5896 17.839 14.3913 17.0456 13.9946C16.2522 13.5842 15.6571 12.9617 15.2604 12.1273C14.8636 11.2928 14.6653 10.2326 14.6653 8.94667C14.6653 7.64708 14.8636 6.58689 15.2604 5.7661C15.6571 4.93163 16.2522 4.31603 17.0456 3.91931C17.839 3.50892 18.824 3.30372 20.0004 3.30372C21.1906 3.30372 22.1755 3.50892 22.9553 3.91931C23.7487 4.31603 24.3438 4.93163 24.7405 5.7661C25.1372 6.58689 25.3356 7.64708 25.3356 8.94667C25.3356 10.2326 25.1372 11.2928 24.7405 12.1273C24.3438 12.9617 23.7487 13.5842 22.9553 13.9946C22.1755 14.3913 21.1906 14.5896 20.0004 14.5896ZM20.0004 12.5376C20.6571 12.5376 21.1838 12.4145 21.5805 12.1683C21.9909 11.9084 22.285 11.5253 22.4628 11.0192C22.6543 10.4993 22.7501 9.85639 22.7501 9.09031V8.80304C22.7501 8.03696 22.6543 7.40085 22.4628 6.89469C22.285 6.37485 21.9909 5.99182 21.5805 5.74558C21.1838 5.48566 20.6571 5.3557 20.0004 5.3557C19.3438 5.3557 18.8103 5.48566 18.3999 5.74558C18.0032 5.99182 17.7091 6.37485 17.5175 6.89469C17.3397 7.40085 17.2508 8.03696 17.2508 8.80304V9.09031C17.2508 9.85639 17.3397 10.4993 17.5175 11.0192C17.7091 11.5253 18.0032 11.9084 18.3999 12.1683C18.8103 12.4145 19.3438 12.5376 20.0004 12.5376Z" fill="var(--fill-0, white)"/>
<path id="Vector_12" d="M6.83311 14.5896C5.39672 14.5896 4.16553 14.3366 3.13954 13.8304C2.12722 13.3243 1.34747 12.5377 0.800274 11.4706C0.266758 10.3899 0 9.00141 0 7.3051C0 4.82904 0.601915 2.99593 1.80575 1.80578C3.00958 0.61563 4.68536 0.0205544 6.83311 0.0205544C7.9959 0.0205544 9.04241 0.218913 9.97264 0.615629C10.9166 1.01235 11.6621 1.61426 12.2093 2.42138C12.7702 3.21481 13.0506 4.22712 13.0506 5.45831H10.3215C10.3215 4.77432 10.171 4.19976 9.87004 3.73465C9.58276 3.25585 9.17921 2.89333 8.65937 2.64709C8.13954 2.40086 7.54446 2.27774 6.87415 2.27774C5.94391 2.27774 5.171 2.46242 4.5554 2.83177C3.93981 3.18745 3.48153 3.72097 3.18058 4.43232C2.8933 5.14367 2.74966 6.02603 2.74966 7.07938V7.53082C2.74966 8.59785 2.8933 9.48704 3.18058 10.1984C3.48153 10.9098 3.93297 11.4433 4.53488 11.7989C5.15048 12.1546 5.93023 12.3325 6.87415 12.3325C7.5855 12.3325 8.20794 12.2162 8.74145 11.9836C9.27497 11.7374 9.68536 11.3817 9.97264 10.9166C10.2736 10.4378 10.4241 9.8564 10.4241 9.1724H13.0506C13.0506 10.4036 12.777 11.4227 12.2298 12.2299C11.6826 13.0233 10.9371 13.6184 9.99316 14.0151C9.06293 14.3981 8.00958 14.5896 6.83311 14.5896Z" fill="var(--fill-0, white)"/>
</g>
</svg>
