<svg preserveAspectRatio="none" width="100%" height="100%" overflow="visible" style="display: block;" viewBox="0 0 14.9738 14.9738" fill="none" xmlns="http://www.w3.org/2000/svg">
<path id="Vector" d="M10.5128 0H4.46025C3.27761 0.0013898 2.14383 0.471857 1.30765 1.30818C0.471467 2.1445 0.00119096 3.27836 0 4.461L0 10.5135C0.0013898 11.6961 0.471857 12.8299 1.30818 13.6661C2.1445 14.5023 3.27836 14.9726 4.461 14.9738H10.5135C11.6961 14.9724 12.8299 14.5019 13.6661 13.6656C14.5023 12.8293 14.9726 11.6954 14.9738 10.5128V4.46025C14.9724 3.27761 14.5019 2.14383 13.6656 1.30765C12.8293 0.471467 11.6954 0.00119096 10.5128 0V0ZM13.4678 10.5128C13.4678 10.9008 13.3913 11.2851 13.2428 11.6436C13.0943 12.0021 12.8766 12.3279 12.6023 12.6023C12.3279 12.8766 12.0021 13.0943 11.6436 13.2428C11.2851 13.3913 10.9008 13.4678 10.5128 13.4678H4.46025C3.67667 13.4676 2.92524 13.1561 2.37123 12.602C1.81723 12.0478 1.506 11.2963 1.506 10.5128V4.46025C1.5062 3.67667 1.81762 2.92524 2.37176 2.37123C2.92591 1.81723 3.67742 1.506 4.461 1.506H10.5135C11.2971 1.5062 12.0485 1.81762 12.6025 2.37176C13.1565 2.92591 13.4678 3.67742 13.4678 4.461V10.5135V10.5128Z" fill="var(--fill-0, #34CC32)"/>
</svg>
