<svg preserveAspectRatio="none" width="100%" height="100%" overflow="visible" style="display: block;" viewBox="0 0 145.533 18.078" fill="none" xmlns="http://www.w3.org/2000/svg">
<g id="ConvergenSEE">
<path id="Vector" d="M133.755 14.3434V0.246259H145.389V3.11904H137.428V5.7661H144.384V8.57732H137.428V11.4706H145.533V14.3434H133.755Z" fill="var(--fill-0, #34CC32)"/>
<path id="Vector_2" d="M119.407 14.3434V0.246259H131.042V3.11904H123.08V5.7661H130.036V8.57732H123.08V11.4706H131.185V14.3434H119.407Z" fill="var(--fill-0, #34CC32)"/>
<path id="Vector_3" d="M110.906 14.5896C110.017 14.5896 109.183 14.5076 108.403 14.3434C107.623 14.1929 106.932 13.9398 106.33 13.5842C105.742 13.2285 105.277 12.7634 104.935 12.1888C104.593 11.6006 104.422 10.8824 104.422 10.0342C104.422 9.97951 104.422 9.91795 104.422 9.84955C104.422 9.78115 104.429 9.72643 104.442 9.68539H107.992C107.992 9.72643 107.986 9.78115 107.972 9.84955C107.972 9.90427 107.972 9.95215 107.972 9.99319C107.972 10.4309 108.081 10.7866 108.3 11.0602C108.533 11.3201 108.854 11.5117 109.265 11.6348C109.675 11.7442 110.154 11.7989 110.701 11.7989C111.002 11.7989 111.282 11.7853 111.542 11.7579C111.802 11.7305 112.035 11.6827 112.24 11.6143C112.445 11.5459 112.623 11.4638 112.774 11.368C112.938 11.2586 113.054 11.1355 113.122 10.9987C113.204 10.8482 113.245 10.6772 113.245 10.4857C113.245 10.171 113.122 9.91111 112.876 9.70591C112.644 9.50072 112.322 9.32972 111.912 9.19292C111.515 9.05612 111.064 8.92616 110.557 8.80304C110.051 8.67992 109.525 8.54996 108.977 8.41316C108.43 8.27637 107.903 8.10537 107.397 7.90017C106.891 7.69497 106.433 7.43505 106.023 7.12041C105.626 6.80578 105.304 6.4159 105.058 5.95078C104.826 5.47199 104.709 4.89743 104.709 4.22712C104.709 3.4884 104.867 2.85229 105.181 2.31877C105.496 1.77158 105.927 1.32698 106.474 0.984981C107.035 0.642984 107.678 0.396745 108.403 0.246267C109.128 0.0821078 109.901 2.82288e-05 110.722 2.82288e-05C111.529 2.82288e-05 112.281 0.0821078 112.979 0.246267C113.69 0.410426 114.319 0.670344 114.867 1.02602C115.414 1.36802 115.838 1.80578 116.139 2.33929C116.453 2.85913 116.618 3.4884 116.631 4.22712V4.47335H113.102V4.32972C113.102 4.01508 113.013 3.74148 112.835 3.50892C112.671 3.26268 112.418 3.07117 112.076 2.93437C111.734 2.78389 111.31 2.70865 110.804 2.70865C110.297 2.70865 109.867 2.75653 109.511 2.85229C109.169 2.94805 108.902 3.08484 108.711 3.26268C108.533 3.44052 108.444 3.65256 108.444 3.8988C108.444 4.19976 108.56 4.44599 108.793 4.63751C109.039 4.82903 109.367 4.99319 109.778 5.12999C110.188 5.26679 110.646 5.39675 111.152 5.51987C111.659 5.62931 112.178 5.75242 112.712 5.88922C113.259 6.01234 113.786 6.1765 114.292 6.3817C114.798 6.57322 115.256 6.8263 115.667 7.14093C116.077 7.44189 116.399 7.81809 116.631 8.26953C116.878 8.72096 117.001 9.26816 117.001 9.91111C117.001 11.0329 116.734 11.9357 116.2 12.6197C115.681 13.3037 114.955 13.803 114.025 14.1177C113.109 14.4323 112.069 14.5896 110.906 14.5896Z" fill="var(--fill-0, #34CC32)"/>
<path id="Vector_4" d="M92.8698 14.3434V3.54996H94.9628L95.168 4.98634H95.3116C95.5579 4.65803 95.8452 4.37075 96.1735 4.12451C96.5155 3.86459 96.8985 3.66624 97.3226 3.52944C97.7603 3.37896 98.2391 3.30372 98.759 3.30372C99.443 3.30372 100.045 3.42684 100.565 3.67308C101.098 3.91931 101.515 4.31603 101.816 4.86323C102.117 5.41042 102.268 6.1423 102.268 7.05885V14.3434H99.7439V7.51029C99.7439 7.12725 99.696 6.81261 99.6003 6.56637C99.5182 6.30646 99.3883 6.10126 99.2104 5.95078C99.0463 5.78662 98.8411 5.67034 98.5948 5.60194C98.3486 5.53354 98.075 5.49934 97.774 5.49934C97.3226 5.49934 96.9122 5.60878 96.5428 5.82766C96.1872 6.04654 95.8999 6.34749 95.681 6.73053C95.4758 7.11357 95.3732 7.55816 95.3732 8.06432V14.3434H92.8698Z" fill="var(--fill-0, white)"/>
<path id="Vector_5" d="M86.005 14.5896C84.8559 14.5896 83.8983 14.3913 83.1323 13.9946C82.3662 13.5842 81.7916 12.9617 81.4086 12.1273C81.0255 11.2928 80.834 10.2326 80.834 8.94667C80.834 7.64708 81.0255 6.58689 81.4086 5.7661C81.7916 4.93163 82.3662 4.31603 83.1323 3.91931C83.8983 3.50892 84.8559 3.30372 86.005 3.30372C87.0447 3.30372 87.9134 3.50208 88.611 3.89879C89.3224 4.28183 89.8559 4.87691 90.2116 5.68402C90.5673 6.49113 90.7451 7.53765 90.7451 8.82356V9.56227H83.399C83.4264 10.2326 83.529 10.8003 83.7068 11.2654C83.8846 11.7169 84.1582 12.0589 84.5276 12.2914C84.9106 12.5103 85.4099 12.6197 86.0255 12.6197C86.3402 12.6197 86.6343 12.5787 86.9079 12.4966C87.1815 12.4145 87.4209 12.2914 87.6261 12.1273C87.8313 11.9494 87.9886 11.7305 88.0981 11.4706C88.2212 11.2107 88.2827 10.9097 88.2827 10.5677H90.7451C90.7451 11.2517 90.622 11.8468 90.3758 12.353C90.1432 12.8591 89.808 13.2764 89.3703 13.6047C88.9462 13.933 88.4469 14.1792 87.8723 14.3434C87.2978 14.5076 86.6753 14.5896 86.005 14.5896ZM83.4401 7.79756H88.1391C88.1391 7.34613 88.0844 6.96309 87.9749 6.64845C87.8792 6.33381 87.7355 6.0739 87.544 5.8687C87.3662 5.6635 87.1473 5.51986 86.8874 5.43778C86.6275 5.34202 86.3333 5.29414 86.005 5.29414C85.4715 5.29414 85.0201 5.38306 84.6507 5.5609C84.295 5.73874 84.0214 6.01234 83.8299 6.38169C83.6384 6.75105 83.5085 7.22301 83.4401 7.79756Z" fill="var(--fill-0, white)"/>
<path id="Vector_6" d="M71.0287 18.078C70.5499 18.078 70.0984 17.9822 69.6744 17.7907C69.2503 17.5992 68.9083 17.3119 68.6484 16.9289C68.3885 16.5595 68.2585 16.1013 68.2585 15.5541C68.2585 14.9522 68.4295 14.4802 68.7715 14.1382C69.1272 13.7825 69.517 13.5158 69.9411 13.3379C69.6265 13.1738 69.3666 12.9549 69.1614 12.6813C68.9698 12.4077 68.8741 12.0794 68.8741 11.6963C68.8741 11.1765 69.0656 10.7661 69.4486 10.4651C69.8317 10.1505 70.2694 9.94531 70.7619 9.84955C70.2558 9.53491 69.8659 9.13136 69.5923 8.63888C69.3324 8.14641 69.2024 7.58553 69.2024 6.95625C69.2024 6.20386 69.3802 5.56091 69.7359 5.02739C70.1053 4.48019 70.6388 4.05612 71.3365 3.75516C72.0341 3.4542 72.8755 3.30372 73.8604 3.30372C74.2571 3.30372 74.6402 3.33108 75.0095 3.3858C75.3789 3.44052 75.714 3.5226 76.015 3.63204C76.4938 3.34476 76.8221 3.02328 76.9999 2.66761C77.1778 2.29825 77.2735 1.99729 77.2872 1.76473H79.7291C79.7291 2.24353 79.6333 2.66761 79.4418 3.03697C79.264 3.40632 79.0109 3.71412 78.6826 3.96036C78.3543 4.19292 77.9575 4.36391 77.4924 4.47335C77.8344 4.77431 78.0943 5.13683 78.2722 5.5609C78.45 5.98498 78.5389 6.4501 78.5389 6.95625C78.5389 7.70865 78.3611 8.35844 78.0054 8.90564C77.6634 9.45284 77.1504 9.87691 76.4664 10.1779C75.7961 10.4788 74.9685 10.6293 73.9835 10.6293H72.3214C72.0341 10.6293 71.8084 10.6909 71.6443 10.814C71.4938 10.9371 71.4185 11.1081 71.4185 11.327C71.4185 11.5048 71.4869 11.6621 71.6237 11.7989C71.7742 11.9357 71.9794 12.0041 72.2393 12.0041H76.9589C77.766 12.0041 78.4295 12.2709 78.9493 12.8044C79.4828 13.3242 79.7496 13.9946 79.7496 14.8154C79.7496 15.4309 79.5854 15.985 79.2571 16.4775C78.9425 16.9699 78.4979 17.3598 77.9233 17.6471C77.3488 17.9344 76.6785 18.078 75.9124 18.078H71.0287ZM71.9315 16.2723H75.8919C76.1518 16.2723 76.3775 16.2244 76.569 16.1286C76.7742 16.0465 76.9315 15.9234 77.041 15.7593C77.1641 15.5951 77.2257 15.4104 77.2257 15.2052C77.2257 14.8496 77.1094 14.5828 76.8768 14.405C76.6579 14.2271 76.3844 14.1382 76.056 14.1382H71.9315C71.6032 14.1382 71.3296 14.234 71.1108 14.4255C70.8919 14.6307 70.7824 14.8906 70.7824 15.2052C70.7824 15.5199 70.885 15.7729 71.0902 15.9645C71.3091 16.1697 71.5895 16.2723 71.9315 16.2723ZM73.8809 8.8646C74.606 8.8646 75.1463 8.70044 75.502 8.37212C75.8714 8.03013 76.056 7.55817 76.056 6.95625C76.056 6.35434 75.8714 5.88922 75.502 5.5609C75.1463 5.23259 74.606 5.06843 73.8809 5.06843C73.1559 5.06843 72.6087 5.23259 72.2393 5.5609C71.8837 5.88922 71.7058 6.35434 71.7058 6.95625C71.7058 7.35297 71.7811 7.69497 71.9315 7.98225C72.0957 8.26952 72.3351 8.4884 72.6497 8.63888C72.9781 8.78936 73.3885 8.8646 73.8809 8.8646Z" fill="var(--fill-0, white)"/>
<path id="Vector_7" d="M61.8092 14.3434V3.54996H63.9022L64.1074 5.2531H64.2511C64.3879 4.91111 64.552 4.59647 64.7436 4.30919C64.9488 4.00823 65.2087 3.76883 65.5233 3.591C65.838 3.39948 66.221 3.30372 66.6724 3.30372C66.8913 3.30372 67.0897 3.32424 67.2675 3.36528C67.459 3.40632 67.6027 3.44736 67.6984 3.4884V5.84818H66.9392C66.5151 5.84818 66.1389 5.90974 65.8106 6.03286C65.4823 6.1423 65.2018 6.32014 64.9693 6.56637C64.7504 6.81261 64.5862 7.12041 64.4768 7.48977C64.3674 7.85912 64.3126 8.29004 64.3126 8.78252V14.3434H61.8092Z" fill="var(--fill-0, white)"/>
<path id="Vector_8" d="M54.9445 14.5896C53.7954 14.5896 52.8378 14.3913 52.0717 13.9946C51.3056 13.5842 50.7311 12.9617 50.348 12.1273C49.965 11.2928 49.7735 10.2326 49.7735 8.94667C49.7735 7.64708 49.965 6.58689 50.348 5.7661C50.7311 4.93163 51.3056 4.31603 52.0717 3.91931C52.8378 3.50892 53.7954 3.30372 54.9445 3.30372C55.9842 3.30372 56.8528 3.50208 57.5505 3.89879C58.2619 4.28183 58.7954 4.87691 59.1511 5.68402C59.5067 6.49113 59.6846 7.53765 59.6846 8.82356V9.56227H52.3385C52.3658 10.2326 52.4684 10.8003 52.6463 11.2654C52.8241 11.7169 53.0977 12.0589 53.4671 12.2914C53.8501 12.5103 54.3494 12.6197 54.965 12.6197C55.2796 12.6197 55.5738 12.5787 55.8474 12.4966C56.121 12.4145 56.3603 12.2914 56.5655 12.1273C56.7707 11.9494 56.9281 11.7305 57.0375 11.4706C57.1606 11.2107 57.2222 10.9097 57.2222 10.5677H59.6846C59.6846 11.2517 59.5614 11.8468 59.3152 12.353C59.0827 12.8591 58.7475 13.2764 58.3097 13.6047C57.8857 13.933 57.3863 14.1792 56.8118 14.3434C56.2372 14.5076 55.6148 14.5896 54.9445 14.5896ZM52.3795 7.79756H57.0785C57.0785 7.34613 57.0238 6.96309 56.9144 6.64845C56.8186 6.33381 56.675 6.0739 56.4835 5.8687C56.3056 5.6635 56.0868 5.51986 55.8268 5.43778C55.5669 5.34202 55.2728 5.29414 54.9445 5.29414C54.411 5.29414 53.9595 5.38306 53.5902 5.5609C53.2345 5.73874 52.9609 6.01234 52.7694 6.38169C52.5779 6.75105 52.4479 7.22301 52.3795 7.79756Z" fill="var(--fill-0, white)"/>
<path id="Vector_9" d="M42.2164 14.3434L38.215 3.54997H40.8415L42.5857 8.41317C42.6678 8.64573 42.7635 8.96037 42.873 9.35709C42.9961 9.74012 43.1192 10.1437 43.2423 10.5678C43.3655 10.9782 43.4681 11.3544 43.5501 11.6963H43.6527C43.7348 11.3817 43.8306 11.0192 43.94 10.6088C44.0495 10.1984 44.1589 9.79484 44.2683 9.39813C44.3915 9.00141 44.5009 8.67309 44.5967 8.41317L46.3203 3.54997H48.8648L44.8429 14.3434H42.2164Z" fill="var(--fill-0, white)"/>
<path id="Vector_10" d="M27.463 14.3434V3.54996H29.5561L29.7613 4.98634H29.9049C30.1511 4.65803 30.4384 4.37075 30.7667 4.12451C31.1087 3.86459 31.4918 3.66624 31.9158 3.52944C32.3536 3.37896 32.8324 3.30372 33.3522 3.30372C34.0362 3.30372 34.6381 3.42684 35.158 3.67308C35.6915 3.91931 36.1087 4.31603 36.4097 4.86323C36.7106 5.41042 36.8611 6.1423 36.8611 7.05885V14.3434H34.3372V7.51029C34.3372 7.12725 34.2893 6.81261 34.1935 6.56637C34.1115 6.30646 33.9815 6.10126 33.8037 5.95078C33.6395 5.78662 33.4343 5.67034 33.1881 5.60194C32.9418 5.53354 32.6682 5.49934 32.3673 5.49934C31.9158 5.49934 31.5054 5.60878 31.1361 5.82766C30.7804 6.04654 30.4931 6.34749 30.2743 6.73053C30.0691 7.11357 29.9665 7.55816 29.9665 8.06432V14.3434H27.463Z" fill="var(--fill-0, white)"/>
<path id="Vector_11" d="M20.0006 14.5896C18.8241 14.5896 17.8392 14.3913 17.0457 13.9946C16.2523 13.5842 15.6572 12.9617 15.2605 12.1273C14.8638 11.2928 14.6654 10.2326 14.6654 8.94667C14.6654 7.64708 14.8638 6.58689 15.2605 5.7661C15.6572 4.93163 16.2523 4.31603 17.0457 3.91931C17.8392 3.50892 18.8241 3.30372 20.0006 3.30372C21.1907 3.30372 22.1757 3.50892 22.9554 3.91931C23.7489 4.31603 24.344 4.93163 24.7407 5.7661C25.1374 6.58689 25.3357 7.64708 25.3357 8.94667C25.3357 10.2326 25.1374 11.2928 24.7407 12.1273C24.344 12.9617 23.7489 13.5842 22.9554 13.9946C22.1757 14.3913 21.1907 14.5896 20.0006 14.5896ZM20.0006 12.5376C20.6572 12.5376 21.1839 12.4145 21.5806 12.1683C21.991 11.9084 22.2851 11.5253 22.463 11.0192C22.6545 10.4993 22.7502 9.85639 22.7502 9.09031V8.80304C22.7502 8.03696 22.6545 7.40085 22.463 6.89469C22.2851 6.37485 21.991 5.99182 21.5806 5.74558C21.1839 5.48566 20.6572 5.3557 20.0006 5.3557C19.3439 5.3557 18.8104 5.48566 18.4 5.74558C18.0033 5.99182 17.7092 6.37485 17.5177 6.89469C17.3398 7.40085 17.2509 8.03696 17.2509 8.80304V9.09031C17.2509 9.85639 17.3398 10.4993 17.5177 11.0192C17.7092 11.5253 18.0033 11.9084 18.4 12.1683C18.8104 12.4145 19.3439 12.5376 20.0006 12.5376Z" fill="var(--fill-0, white)"/>
<path id="Vector_12" d="M6.83325 14.5896C5.39686 14.5896 4.16567 14.3366 3.13968 13.8304C2.12737 13.3243 1.34761 12.5377 0.800416 11.4706C0.2669 10.3899 0.000141907 9.00141 0.000141907 7.3051C0.000141907 4.82904 0.602057 2.99593 1.80589 1.80578C3.00972 0.61563 4.68551 0.0205544 6.83325 0.0205544C7.99604 0.0205544 9.04255 0.218913 9.97278 0.615629C10.9167 1.01235 11.6623 1.61426 12.2094 2.42138C12.7703 3.21481 13.0508 4.22712 13.0508 5.45831H10.3216C10.3216 4.77432 10.1711 4.19976 9.87018 3.73465C9.58291 3.25585 9.17935 2.89333 8.65951 2.64709C8.13968 2.40086 7.5446 2.27774 6.87429 2.27774C5.94406 2.27774 5.17114 2.46242 4.55555 2.83177C3.93995 3.18745 3.48167 3.72097 3.18072 4.43232C2.89344 5.14367 2.7498 6.02603 2.7498 7.07938V7.53082C2.7498 8.59785 2.89344 9.48704 3.18072 10.1984C3.48167 10.9098 3.93311 11.4433 4.53503 11.7989C5.15062 12.1546 5.93038 12.3325 6.87429 12.3325C7.58564 12.3325 8.20808 12.2162 8.74159 11.9836C9.27511 11.7374 9.68551 11.3817 9.97278 10.9166C10.2737 10.4378 10.4242 9.8564 10.4242 9.1724H13.0508C13.0508 10.4036 12.7772 11.4227 12.23 12.2299C11.6828 13.0233 10.9372 13.6184 9.9933 14.0151C9.06307 14.3981 8.00972 14.5896 6.83325 14.5896Z" fill="var(--fill-0, white)"/>
</g>
</svg>
