<svg preserveAspectRatio="none" width="100%" height="100%" overflow="visible" style="display: block;" viewBox="0 0 40 40" fill="none" xmlns="http://www.w3.org/2000/svg">
<g id="Atom_light">
<circle id="Ellipse 170" cx="20" cy="20" r="1.66667" fill="var(--fill-0, #34CC32)"/>
<path id="Ellipse 171" d="M19.9997 3.83333C22.0094 3.83333 23.9635 5.47588 25.445 8.4388C26.9115 11.3718 27.8337 15.4588 27.8337 20.0003C27.8336 24.5418 26.9115 28.6289 25.445 31.5618C23.9636 34.5245 22.0094 36.1663 19.9997 36.1663C17.9901 36.1662 16.0357 34.5245 14.5544 31.5618C13.0879 28.6289 12.1667 24.5418 12.1667 20.0003C12.1667 15.4589 13.088 11.3718 14.5544 8.4388C16.0357 5.47604 17.99 3.83351 19.9997 3.83333Z" stroke="var(--stroke-0, #34CC32)"/>
<path id="Ellipse 173" d="M34.0006 11.9161C35.0055 13.6567 34.56 16.1702 32.7348 18.9346C30.928 21.6712 27.8496 24.5133 23.9165 26.7841C19.9835 29.0547 15.9829 30.2997 12.7096 30.4962C9.40318 30.6945 7.00421 29.8231 5.99937 28.0826C4.99471 26.3422 5.43926 23.8289 7.26432 21.0646C9.07109 18.3281 12.1501 15.4868 16.083 13.216C20.016 10.9454 24.0162 9.69965 27.2895 9.50309C30.596 9.30462 32.9956 10.1758 34.0006 11.9161Z" stroke="var(--stroke-0, #34CC32)"/>
<path id="Ellipse 174" d="M34.0006 28.0835C35.0055 26.343 34.56 23.8295 32.7348 21.065C30.928 18.3285 27.8496 15.4864 23.9165 13.2156C19.9835 10.9449 15.9829 9.69997 12.7096 9.5035C9.40317 9.30513 7.0042 10.1766 5.99937 11.917C4.99471 13.6575 5.43926 16.1708 7.26432 18.9351C9.07108 21.6715 12.1501 24.5129 16.083 26.7836C20.016 29.0543 24.0162 30.3 27.2895 30.4966C30.596 30.695 32.9956 29.8239 34.0006 28.0835Z" stroke="var(--stroke-0, #34CC32)"/>
</g>
</svg>
