<svg preserveAspectRatio="none" width="100%" height="100%" overflow="visible" style="display: block;" viewBox="0 0 40 40" fill="none" xmlns="http://www.w3.org/2000/svg">
<g id="File_dock_light">
<path id="Vector 55" d="M14.1667 20.8333L25.8333 20.8333" stroke="var(--stroke-0, #34CC32)" stroke-linecap="round"/>
<path id="Vector 58" d="M14.1667 25.8333L20.8333 25.8333" stroke="var(--stroke-0, #34CC32)" stroke-linecap="round"/>
<path id="Rectangle 4152" d="M9.16667 8.23334C9.16667 7.39326 9.16667 6.97322 9.33016 6.65235C9.47397 6.3701 9.70344 6.14063 9.98568 5.99682C10.3065 5.83333 10.7266 5.83333 11.5667 5.83333H21.5059C21.8728 5.83333 22.0562 5.83333 22.2288 5.87478C22.3819 5.91152 22.5282 5.97213 22.6624 6.05437C22.8138 6.14714 22.9435 6.27685 23.2029 6.53628L30.1304 13.4637C30.3898 13.7232 30.5195 13.8529 30.6123 14.0042C30.6945 14.1384 30.7551 14.2848 30.7919 14.4378C30.8333 14.6105 30.8333 14.7939 30.8333 15.1608V31.7667C30.8333 32.6067 30.8333 33.0268 30.6698 33.3477C30.526 33.6299 30.2966 33.8594 30.0143 34.0032C29.6935 34.1667 29.2734 34.1667 28.4333 34.1667H11.5667C10.7266 34.1667 10.3065 34.1667 9.98568 34.0032C9.70344 33.8594 9.47397 33.6299 9.33016 33.3477C9.16667 33.0268 9.16667 32.6067 9.16667 31.7667V8.23334Z" stroke="var(--stroke-0, #34CC32)"/>
<path id="Vector 317" d="M20.8333 5.83333V13.4333C20.8333 14.2734 20.8333 14.6935 20.9968 15.0143C21.1406 15.2966 21.3701 15.526 21.6523 15.6698C21.9732 15.8333 22.3933 15.8333 23.2333 15.8333H30.8333" stroke="var(--stroke-0, #34CC32)"/>
</g>
</svg>
