<svg preserveAspectRatio="none" width="100%" height="100%" overflow="visible" style="display: block;" viewBox="0 0 12.667 9.33301" fill="none" xmlns="http://www.w3.org/2000/svg">
<path id="Subtract" d="M12.167 8.33301C12.4427 8.33336 12.6668 8.55723 12.667 8.83301C12.6668 9.10878 12.4427 9.33266 12.167 9.33301H0.5C0.223966 9.33301 0.000175959 9.109 0 8.83301C0.000175735 8.55701 0.223966 8.33301 0.5 8.33301H12.167ZM12.167 4.16699C12.4428 4.16734 12.667 4.39107 12.667 4.66699C12.6666 4.94262 12.4426 5.16664 12.167 5.16699H0.5C0.224075 5.16699 0.000351802 4.94284 0 4.66699C0 4.39085 0.223858 4.16699 0.5 4.16699H12.167ZM8.0166 0C8.05163 0.352493 8.14216 0.688517 8.27832 1H0.5C0.223966 1 0.000175959 0.775993 0 0.5C0 0.223858 0.223858 0 0.5 0H8.0166ZM12.2676 0.00976562C12.4952 0.0565575 12.667 0.25853 12.667 0.5C12.6669 0.588692 12.6431 0.671871 12.6025 0.744141C12.5446 0.812364 12.4812 0.875484 12.4131 0.933594C12.3682 0.959193 12.3197 0.979528 12.2676 0.990234L12.167 1H10.3359C10.0149 0.759576 9.78304 0.407415 9.7002 0H12.167L12.2676 0.00976562Z" fill="var(--fill-0, #000718)"/>
</svg>
