<svg preserveAspectRatio="none" width="100%" height="100%" overflow="visible" style="display: block;" viewBox="0 0 30 30" fill="none" xmlns="http://www.w3.org/2000/svg">
<g id="Group_duotone_fill">
<rect width="30" height="30" rx="15" fill="var(--fill-0, #34CC32)" fill-opacity="0.5"/>
<path id="Vector 617" d="M13.7662 20.6264C13.9451 17.0958 15.6569 13.7512 19.3755 13.7512C23.0941 13.7512 24.8059 17.0958 24.9847 20.6264C25.0022 20.9711 24.7207 21.2512 24.3755 21.2512H14.3755C14.0303 21.2512 13.7488 20.9711 13.7662 20.6264Z" fill="var(--fill-0, #000718)" fill-opacity="0.24"/>
<path id="Vector 618" d="M5.01599 20.6264C5.19484 17.0958 6.90665 13.7512 10.6252 13.7512C14.3438 13.7512 16.0557 17.0958 16.2345 20.6264C16.252 20.9711 15.9704 21.2512 15.6252 21.2512H5.62524C5.28007 21.2512 4.99853 20.9711 5.01599 20.6264Z" fill="var(--fill-0, #000718)" fill-opacity="0.24"/>
<circle id="Ellipse 47" cx="19.3752" cy="9.37622" r="3.125" fill="var(--fill-0, #000718)" fill-opacity="0.24"/>
<circle id="Ellipse 49" cx="3.125" cy="3.125" r="3.125" transform="matrix(-1 0 0 1 13.7505 6.25122)" fill="var(--fill-0, #000718)" fill-opacity="0.24"/>
<path id="Vector 616" d="M8.76773 21.876C8.96643 18.3454 10.8685 15.0007 15.0002 15.0007C19.132 15.0007 21.0341 18.3454 21.2328 21.876C21.2521 22.2206 20.9704 22.5007 20.6252 22.5007H9.37524C9.03007 22.5007 8.74834 22.2206 8.76773 21.876Z" fill="var(--fill-0, #000718)"/>
<circle id="Ellipse 46" cx="15.0007" cy="10.0012" r="3.75" fill="var(--fill-0, #000718)"/>
</g>
</svg>
