<svg preserveAspectRatio="none" width="100%" height="100%" overflow="visible" style="display: block;" viewBox="0 0 10.2787 7.09" fill="none" xmlns="http://www.w3.org/2000/svg">
<path id="Arrow" d="M3.90919 3.93345C3.35171 4.49172 2.81849 5.02652 2.28474 5.56159C1.82787 6.01846 1.37099 6.47463 0.914121 6.9301C0.764671 7.0785 0.584382 7.12436 0.381161 7.06453C0.177941 7.00469 0.0569574 6.86051 0.0121487 6.65677C-0.0310785 6.45855 0.0445691 6.29593 0.183212 6.15596C0.81686 5.52267 1.44998 4.8892 2.08257 4.25555C2.55157 3.78673 3.02092 3.31817 3.49062 2.84987C3.74814 2.5942 4.04625 2.59288 4.30271 2.84592C4.65907 3.19736 5.01306 3.55144 5.36468 3.90815C5.40448 3.94821 5.42952 4.00278 5.45772 4.04495L8.41931 1.08072C8.37714 1.07809 8.33655 1.07361 8.29569 1.07334C7.95304 1.07334 7.61038 1.07677 7.26773 1.07123C7.04131 1.06781 6.87078 0.957894 6.77773 0.752037C6.6889 0.555406 6.71843 0.364574 6.85681 0.196937C6.90645 0.134806 6.96969 0.0849072 7.04167 0.0510893C7.11365 0.0172713 7.19243 0.000437952 7.27194 0.0018875C8.09221 4.24331e-05 8.91458 -0.00153905 9.73589 0.00267824C10.0461 0.00425972 10.2757 0.239901 10.2768 0.549608C10.2794 1.36671 10.2794 2.18381 10.2768 3.00091C10.2768 3.3114 10.0335 3.55442 9.73879 3.55179C9.44411 3.54915 9.21691 3.3172 9.21163 3.00591C9.20663 2.67222 9.21032 2.33826 9.21032 2.00431V1.86593L9.16234 1.83483C9.13252 1.8818 9.09921 1.92647 9.06271 1.96846C8.01401 3.01909 6.96452 4.06893 5.91424 5.11798C5.64091 5.39079 5.34544 5.39132 5.07316 5.12036C4.71557 4.76435 4.35859 4.4072 4.00223 4.0489C3.97165 4.01806 3.94714 3.98011 3.90919 3.93345Z" fill="var(--fill-0, #34CC32)"/>
</svg>
