<svg preserveAspectRatio="none" width="100%" height="100%" overflow="visible" style="display: block;" viewBox="0 0 12.666 14.2344" fill="none" xmlns="http://www.w3.org/2000/svg">
<path id="Subtract" d="M6.33301 0.5V0V0V0.5ZM12.166 6.33398L12.666 6.33401V6.33398H12.166ZM6.73242 13.6348L6.96564 14.077L6.96568 14.077L6.73242 13.6348ZM5.93359 13.6348L5.70033 14.077L5.70037 14.077L5.93359 13.6348ZM0.5 6.33398H0V6.33401L0.5 6.33398ZM3.83301 6.33398H3.33301V6.33405L3.83301 6.33398ZM8.83301 6.33398L9.33301 6.33405V6.33398H8.83301ZM6.33301 0.5V1C9.27842 1 11.666 3.38836 11.666 6.33398H12.166H12.666C12.666 2.83629 9.83092 0 6.33301 0V0.5ZM12.166 6.33398L11.666 6.33396C11.6659 8.20934 10.7273 9.74257 9.58468 10.9151C8.44211 12.0875 7.13457 12.8574 6.49916 13.1925L6.73242 13.6348L6.96568 14.077C7.64662 13.7179 9.05577 12.8907 10.3009 11.613C11.5459 10.3354 12.6659 8.56534 12.666 6.33401L12.166 6.33398ZM6.73242 13.6348L6.4992 13.1925C6.39324 13.2484 6.27277 13.2484 6.16681 13.1925L5.93359 13.6348L5.70037 14.077C6.09824 14.2868 6.56777 14.2868 6.96564 14.077L6.73242 13.6348ZM5.93359 13.6348L6.16686 13.1925C5.53144 12.8574 4.2239 12.0875 3.08134 10.9151C1.93874 9.74257 1.0001 8.20934 1 6.33396L0.5 6.33398L0 6.33401C0.000118285 8.56534 1.1201 10.3354 2.36516 11.613C3.61025 12.8907 5.01939 13.7179 5.70033 14.077L5.93359 13.6348ZM0.5 6.33398H1C1 3.38836 3.3876 1 6.33301 1V0.5V0C2.8351 1.78814e-07 0 2.83629 0 6.33398H0.5ZM6.33301 3.83398V3.33398C4.67615 3.33398 3.33301 4.67713 3.33301 6.33398H3.83301H4.33301C4.33301 5.22941 5.22844 4.33398 6.33301 4.33398V3.83398ZM3.83301 6.33398L3.33301 6.33405C3.33322 7.99064 4.6762 9.33398 6.33301 9.33398V8.83398V8.33398C5.22861 8.33398 4.33315 7.43845 4.33301 6.33392L3.83301 6.33398ZM6.33301 8.83398V9.33398C7.98982 9.33398 9.3328 7.99064 9.33301 6.33405L8.83301 6.33398L8.33301 6.33392C8.33287 7.43845 7.43741 8.33398 6.33301 8.33398V8.83398ZM8.83301 6.33398H9.33301C9.33301 4.67713 7.98986 3.33398 6.33301 3.33398V3.83398V4.33398C7.43758 4.33398 8.33301 5.22941 8.33301 6.33398H8.83301Z" fill="var(--stroke-0, #101010)"/>
</svg>
