<svg preserveAspectRatio="none" width="100%" height="100%" overflow="visible" style="display: block;" viewBox="0 0 14.7143 12.667" fill="none" xmlns="http://www.w3.org/2000/svg">
<path id="Subtract" fill-rule="evenodd" clip-rule="evenodd" d="M10.9326 1.44122C10.0014 0.54515 8.73721 0 7.35715 0C4.73029 0 2.52322 1.97514 2.23313 4.58594L2.02317 6.47461C2.02167 6.48806 2.02071 6.49744 2.01994 6.50496C2.01932 6.51094 2.01883 6.51576 2.01828 6.52051C1.91889 7.38669 1.63701 8.22246 1.19114 8.97168C1.18907 8.97515 1.18703 8.9787 1.18462 8.98288C1.18059 8.98988 1.17554 8.99865 1.1677 9.01172L0.685277 9.81445L0.676829 9.82853C0.467828 10.1769 0.291556 10.4706 0.176488 10.7148C0.0610808 10.9599 -0.03511 11.2397 0.0124251 11.541C0.0626555 11.8594 0.226232 12.1486 0.473363 12.3555C0.707197 12.5512 0.995968 12.6125 1.26535 12.6396C1.53715 12.667 1.88521 12.667 2.29789 12.667H2.30051H12.4138H12.4164C12.8291 12.667 13.1772 12.667 13.4489 12.6396C13.7183 12.6125 14.0071 12.5512 14.2409 12.3555C14.4881 12.1486 14.6516 11.8594 14.7019 11.541C14.7494 11.2397 14.6532 10.9599 14.5378 10.7148C14.4227 10.4706 14.2465 10.1769 14.0375 9.82855L14.029 9.81445L13.5466 9.01172C13.5388 8.99863 13.5337 8.98986 13.5297 8.98286C13.5273 8.97869 13.5252 8.97514 13.5232 8.97168C13.0773 8.22246 12.7954 7.38669 12.696 6.52051C12.6955 6.51575 12.695 6.51093 12.6944 6.50494C12.6936 6.49742 12.6926 6.48805 12.6911 6.47461L12.4812 4.58594C12.4736 4.51777 12.4647 4.45003 12.4546 4.38276C12.1888 4.56202 11.8685 4.66667 11.5238 4.66667C11.5103 4.66667 11.4969 4.66651 11.4836 4.66619C11.4848 4.67621 11.4859 4.68624 11.487 4.69629L11.697 6.58496C11.6996 6.60865 11.7014 6.62177 11.7029 6.63477C11.8184 7.64127 12.1457 8.6118 12.6638 9.48242C12.6663 9.48661 12.6688 9.49086 12.6716 9.49561C12.6762 9.50351 12.6816 9.51277 12.6892 9.52539L13.1716 10.3281C13.3958 10.7018 13.5434 10.9503 13.6335 11.1416C13.6769 11.2338 13.6979 11.2955 13.7077 11.3369C13.7123 11.3563 13.7141 11.3688 13.7146 11.376V11.3857C13.7019 11.4651 13.661 11.5373 13.5993 11.5889C13.5993 11.5889 13.5993 11.5889 13.5992 11.5889C13.5989 11.5891 13.5982 11.5893 13.5974 11.5898C13.5963 11.5906 13.5945 11.5922 13.5915 11.5938C13.5852 11.597 13.5735 11.6023 13.5544 11.6084C13.5138 11.6213 13.4498 11.6343 13.3484 11.6445C13.1379 11.6657 12.8494 11.667 12.4138 11.667H2.30051C1.8649 11.667 1.57635 11.6657 1.36594 11.6445C1.26448 11.6343 1.20047 11.6213 1.15989 11.6084C1.14078 11.6023 1.12908 11.597 1.12278 11.5938C1.12064 11.5926 1.11911 11.5915 1.11802 11.5906C1.11759 11.5903 1.11722 11.59 1.11692 11.5898C1.11613 11.5893 1.11544 11.5891 1.11513 11.5889C1.11504 11.5889 1.11498 11.5889 1.11496 11.5889C1.05333 11.5373 1.01237 11.4651 0.99973 11.3857V11.376C1.00016 11.3688 1.002 11.3563 1.00657 11.3369C1.01636 11.2955 1.03739 11.2338 1.08078 11.1416C1.1709 10.9503 1.31852 10.7018 1.5427 10.3281L2.02512 9.52539C2.03269 9.51277 2.03812 9.50351 2.04274 9.49561C2.04552 9.49087 2.04802 9.48661 2.05051 9.48242C2.56859 8.6118 2.89594 7.64127 3.01145 6.63477C3.012 6.62993 3.01259 6.62507 3.01325 6.61965C3.01436 6.61053 3.01566 6.59983 3.01731 6.58496L3.22727 4.69629C3.46113 2.59198 5.23987 1 7.35715 1C8.42162 1 9.40051 1.40239 10.1405 2.06996C10.3317 1.78618 10.6079 1.56443 10.9326 1.44122Z" fill="var(--fill-0, #000718)"/>
</svg>
