<svg preserveAspectRatio="none" width="100%" height="100%" overflow="visible" style="display: block;" viewBox="0 0 17.6673 17.6672" fill="none" xmlns="http://www.w3.org/2000/svg">
<path id="Subtract" d="M10.0519 0.558757L10.2357 0.0937554L10.2356 0.0936977L10.0519 0.558757ZM10.4865 0.951335L10.9309 0.722251L10.9308 0.722046L10.4865 0.951335ZM10.6134 1.63493L10.1159 1.68463L10.6134 1.63493ZM10.8586 2.84782L10.4608 3.15079L10.4609 3.15092L10.8586 2.84782ZM11.633 3.16813L11.6996 3.66367L11.6999 3.66363L11.633 3.16813ZM12.6642 2.48454L12.9807 2.8716L12.6642 2.48454ZM13.2375 2.09098L13.0854 1.61466L13.0854 1.61468L13.2375 2.09098ZM13.8224 2.12028L14.0212 1.66151L14.0212 1.66147L13.8224 2.12028ZM14.3527 2.56852L13.9992 2.92215L13.9994 2.92231L14.3527 2.56852ZM15.0978 3.31266L15.4513 2.95904L15.4511 2.95888L15.0978 3.31266ZM15.5461 3.84391L16.0048 3.64507L16.0048 3.64497L15.5461 3.84391ZM15.5754 4.42887L16.0516 4.58124L16.0516 4.58108L15.5754 4.42887ZM15.1818 5.00212L14.7949 4.68537L15.1818 5.00212ZM14.4972 6.03239L14.0018 5.96495L14.0017 5.96538L14.4972 6.03239ZM14.8175 6.8068L14.5141 7.20417L14.5143 7.20433L14.8175 6.8068ZM16.0324 7.0529L16.0823 6.5554V6.5554L16.0324 7.0529ZM16.717 7.18083L16.9468 6.73679L16.9465 6.73666L16.717 7.18083ZM17.1086 7.61442L17.5735 7.43047L17.5734 7.43035L17.1086 7.61442ZM17.1086 10.0519L17.5735 10.2357L17.5736 10.2355L17.1086 10.0519ZM16.716 10.4865L16.9451 10.9309L16.9453 10.9308L16.716 10.4865ZM16.0324 10.6134L15.9827 10.1159L16.0324 10.6134ZM14.8185 10.8586L14.5154 10.461L14.5153 10.461L14.8185 10.8586ZM14.4982 11.633L14.0027 11.6997L14.0027 11.6998L14.4982 11.633ZM15.1828 12.6652L15.5698 12.3486V12.3486L15.1828 12.6652ZM15.5763 13.2375L16.0526 13.0853L16.0526 13.0853L15.5763 13.2375ZM15.547 13.8224L16.0058 14.0212L16.0059 14.0211L15.547 13.8224ZM15.0988 14.3537L15.4523 14.7072L15.4524 14.7072L15.0988 14.3537ZM14.3547 15.0978L14.0011 14.7443L14.001 14.7443L14.3547 15.0978ZM13.8234 15.5461L14.0222 16.0048L14.0225 16.0047L13.8234 15.5461ZM13.2384 15.5754L13.0863 16.0516L13.0864 16.0517L13.2384 15.5754ZM12.6652 15.1818L12.9818 14.7948L12.6652 15.1818ZM11.633 14.4972L11.6999 14.0017L11.6995 14.0017L11.633 14.4972ZM10.8595 14.8175L10.4622 14.514L10.462 14.5142L10.8595 14.8175ZM10.6134 16.0324L11.111 16.0821L10.6134 16.0324ZM10.4865 16.716L10.9308 16.9453L10.9309 16.9452L10.4865 16.716ZM10.0529 17.1086L10.2368 17.5735L10.2371 17.5734L10.0529 17.1086ZM7.61442 17.1086L7.43039 17.5735L7.43047 17.5735L7.61442 17.1086ZM7.18083 16.716L6.73651 16.9453L6.73664 16.9455L7.18083 16.716ZM7.0529 16.0324L6.5554 16.0823L7.0529 16.0324ZM6.8068 14.8185L7.20432 14.5152L7.20426 14.5152L6.8068 14.8185ZM6.03337 14.4982L5.96665 14.0027L5.96656 14.0027L6.03337 14.4982ZM5.00212 15.1828L4.68545 14.7958L5.00212 15.1828ZM4.42887 15.5754L4.58111 16.0516L4.58112 16.0516L4.42887 15.5754ZM3.84391 15.5461L3.64499 16.0048L3.6451 16.0048L3.84391 15.5461ZM3.31266 15.0978L3.66622 14.7443L3.31266 15.0978ZM2.12028 13.8234L1.66144 14.0221L1.66154 14.0223L2.12028 13.8234ZM2.09098 13.2384L1.61466 13.0864L1.61462 13.0865L2.09098 13.2384ZM2.48454 12.6652L2.09748 12.3487L2.48454 12.6652ZM3.16911 11.633L3.6646 11.7L3.66467 11.6995L3.16911 11.633ZM2.8488 10.8595L3.15214 10.4621L3.15204 10.462L2.8488 10.8595ZM1.63493 10.6134L1.58525 11.111L1.63493 10.6134ZM0.951335 10.4865L0.722051 10.9308L0.722154 10.9309L0.951335 10.4865ZM0.558757 10.0519L0.0936829 10.2355L0.0938007 10.2358L0.558757 10.0519ZM0.558757 7.61442L0.0938777 7.43034L0.0938289 7.43046L0.558757 7.61442ZM0.951335 7.18083L0.722017 6.73652L0.721963 6.73654L0.951335 7.18083ZM1.63493 7.05387L1.68475 7.55139L1.63493 7.05387ZM2.8488 6.80778L3.15179 7.20551L3.15222 7.20519L2.8488 6.80778ZM3.16911 6.03434L3.66467 5.96789L3.66467 5.96785L3.16911 6.03434ZM2.48454 5.00212L2.87154 4.68552L2.48454 5.00212ZM2.09098 4.42887L1.61467 4.58093L1.6147 4.58102L2.09098 4.42887ZM2.12028 3.84391L1.66147 3.64518L1.66143 3.64528L2.12028 3.84391ZM2.56852 3.31266L2.21497 2.95911L2.2149 2.95918L2.56852 3.31266ZM3.31266 2.56852L3.66622 2.92208L3.66629 2.922L3.31266 2.56852ZM3.84391 2.12028L3.64508 1.66151L3.64484 1.66162L3.84391 2.12028ZM4.42887 2.09098L4.58102 1.6147L4.58094 1.61467L4.42887 2.09098ZM5.00212 2.48356L5.31871 2.09656L5.00212 2.48356ZM6.03434 3.16813L5.9677 3.66367L5.96786 3.66369L6.03434 3.16813ZM6.80778 2.84782L7.20527 3.15114L7.20545 3.1509L6.80778 2.84782ZM7.05387 1.63493L7.55138 1.68476L7.05387 1.63493ZM7.18083 0.951335L6.73653 0.721994L6.73649 0.722075L7.18083 0.951335ZM7.61442 0.558757L7.43059 0.0937769L7.43035 0.0938732L7.61442 0.558757ZM8.3068 0.500163V0.000163078V0.000163078V0.500163ZM8.83317 5.50016V5.00016H8.83312L8.83317 5.50016ZM5.50016 8.83317L5.00016 8.83312V8.83317H5.50016ZM8.83317 12.1672L8.83312 12.6672H8.83317V12.1672ZM12.1672 8.83317H12.6672V8.83312L12.1672 8.83317ZM9.35954 0.500163V1.00016C9.76731 1.00016 9.83107 1.00912 9.86829 1.02382L10.0519 0.558757L10.2356 0.0936977C9.97764 -0.00813788 9.67763 0.000163078 9.35954 0.000163078V0.500163ZM10.0519 0.558757L9.86815 1.02376C9.94385 1.05368 10.0055 1.10962 10.0422 1.18062L10.4865 0.951335L10.9308 0.722046C10.7825 0.434711 10.535 0.212052 10.2357 0.0937554L10.0519 0.558757ZM10.4865 0.951335L10.0421 1.18042C10.0451 1.18631 10.0567 1.21024 10.0706 1.29329C10.0853 1.38114 10.0972 1.49744 10.1159 1.68463L10.6134 1.63493L11.111 1.58523C11.0936 1.41115 11.0783 1.25618 11.0568 1.12782C11.0345 0.994658 11.0006 0.857421 10.9309 0.722251L10.4865 0.951335ZM10.6134 1.63493L10.1159 1.68463C10.1492 2.01783 10.1767 2.29739 10.2159 2.51559C10.2542 2.72899 10.3149 2.95918 10.4608 3.15079L10.8586 2.84782L11.2563 2.54485C11.2594 2.54884 11.2316 2.51425 11.2001 2.33893C11.1695 2.16842 11.1459 1.93535 11.111 1.58523L10.6134 1.63493ZM10.8586 2.84782L10.4609 3.15092C10.7519 3.53268 11.2255 3.72746 11.6996 3.66367L11.633 3.16813L11.5663 2.6726C11.4468 2.68867 11.3284 2.63938 11.2562 2.54471L10.8586 2.84782ZM11.633 3.16813L11.6999 3.66363C11.9383 3.63143 12.1439 3.51192 12.3221 3.3882C12.5042 3.26172 12.7214 3.08367 12.9807 2.8716L12.6642 2.48454L12.3477 2.09747C12.0754 2.32015 11.8938 2.46812 11.7516 2.56686C11.6055 2.66836 11.5613 2.67327 11.5661 2.67263L11.633 3.16813ZM12.6642 2.48454L12.9807 2.8716C13.1265 2.7524 13.2171 2.67858 13.2898 2.62684C13.3584 2.57793 13.3834 2.56927 13.3896 2.56729L13.2375 2.09098L13.0854 1.61468C12.9404 1.66098 12.8193 1.73414 12.7094 1.81247C12.6035 1.88797 12.4831 1.98677 12.3477 2.09747L12.6642 2.48454ZM13.2375 2.09098L13.3895 2.5673C13.4661 2.54284 13.5496 2.54698 13.6237 2.57909L13.8224 2.12028L14.0212 1.66147C13.7254 1.53338 13.3928 1.51655 13.0854 1.61466L13.2375 2.09098ZM13.8224 2.12028L13.6236 2.57905C13.6294 2.58156 13.6532 2.59252 13.7164 2.64793C13.7834 2.70664 13.866 2.78899 13.9992 2.92215L14.3527 2.56852L14.7062 2.2149C14.5828 2.09157 14.473 1.98134 14.3755 1.89582C14.2741 1.80701 14.161 1.72209 14.0212 1.66151L13.8224 2.12028ZM14.3527 2.56852L13.9994 2.92231L14.7445 3.66645L15.0978 3.31266L15.4511 2.95888L14.706 2.21474L14.3527 2.56852ZM15.0978 3.31266L14.7443 3.66629C15.0326 3.95443 15.0714 4.0061 15.0873 4.04285L15.5461 3.84391L16.0048 3.64497C15.8944 3.39051 15.6767 3.18434 15.4513 2.95904L15.0978 3.31266ZM15.5461 3.84391L15.0873 4.04276C15.1195 4.11698 15.1236 4.20002 15.0991 4.27667L15.5754 4.42887L16.0516 4.58108C16.1499 4.27347 16.1331 3.94098 16.0048 3.64507L15.5461 3.84391ZM15.5754 4.42887L15.0991 4.2765C15.097 4.28304 15.0882 4.30827 15.0394 4.37678C14.9878 4.44925 14.914 4.53993 14.7949 4.68537L15.1818 5.00212L15.5687 5.31886C15.6796 5.18334 15.7784 5.06298 15.854 4.95685C15.9324 4.84678 16.0053 4.72587 16.0516 4.58124L15.5754 4.42887ZM15.1818 5.00212L14.7949 4.68537C14.5829 4.94428 14.4047 5.16124 14.2781 5.34305C14.1543 5.52082 14.0343 5.72637 14.0018 5.96495L14.4972 6.03239L14.9927 6.09983C14.992 6.10482 14.9969 6.06076 15.0987 5.91456C15.1977 5.77239 15.3459 5.59102 15.5687 5.31886L15.1818 5.00212ZM14.4972 6.03239L14.0017 5.96538C13.9375 6.44033 14.1334 6.91346 14.5141 7.20417L14.8175 6.8068L15.121 6.40943C15.0257 6.33666 14.9767 6.21797 14.9927 6.0994L14.4972 6.03239ZM14.8175 6.8068L14.5143 7.20433C14.7059 7.35053 14.9365 7.41138 15.1501 7.44982C15.3686 7.48917 15.6487 7.51689 15.9824 7.5504L16.0324 7.0529L16.0823 6.5554C15.7318 6.5202 15.4981 6.49641 15.3272 6.46564C15.1514 6.43398 15.1167 6.40613 15.1208 6.40927L14.8175 6.8068ZM16.0324 7.0529L15.9824 7.5504C16.1697 7.5692 16.2862 7.58126 16.374 7.59612C16.4571 7.61017 16.4812 7.62182 16.4874 7.625L16.717 7.18083L16.9465 6.73666C16.8115 6.66686 16.6744 6.63272 16.5409 6.61013C16.4122 6.58835 16.257 6.57293 16.0823 6.5554L16.0324 7.0529ZM16.717 7.18083L16.4871 7.62487C16.5581 7.66159 16.6139 7.72319 16.6437 7.79849L17.1086 7.61442L17.5734 7.43035C17.4552 7.13172 17.233 6.88493 16.9468 6.73679L16.717 7.18083ZM17.1086 7.61442L16.6436 7.79837C16.6461 7.80471 16.6553 7.82973 16.6609 7.91366C16.6669 8.00251 16.6672 8.11947 16.6672 8.30778H17.1672H17.6672C17.6672 8.13256 17.6674 7.97673 17.6587 7.84673C17.6496 7.71182 17.6295 7.57192 17.5735 7.43047L17.1086 7.61442ZM17.1672 8.30778H16.6672V9.35954H17.1672H17.6672V8.30778H17.1672ZM17.1672 9.35954H16.6672C16.6672 9.76736 16.6582 9.83105 16.6435 9.86829L17.1086 10.0519L17.5736 10.2355C17.6755 9.97762 17.6672 9.67768 17.6672 9.35954H17.1672ZM17.1086 10.0519L16.6436 9.8681C16.6136 9.94385 16.5576 10.0056 16.4867 10.0422L16.716 10.4865L16.9453 10.9308C17.2326 10.7825 17.4553 10.535 17.5735 10.2357L17.1086 10.0519ZM16.716 10.4865L16.4869 10.0421C16.481 10.0451 16.4571 10.0567 16.3741 10.0706C16.2862 10.0853 16.1699 10.0972 15.9827 10.1159L16.0324 10.6134L16.0821 11.111C16.2562 11.0936 16.4112 11.0784 16.5395 11.0568C16.6727 11.0345 16.8099 11.0006 16.9451 10.9309L16.716 10.4865ZM16.0324 10.6134L15.9827 10.1159C15.6493 10.1492 15.3695 10.1767 15.1512 10.2158C14.9377 10.2541 14.7072 10.3147 14.5154 10.461L14.8185 10.8586L15.1217 11.2562C15.1175 11.2593 15.152 11.2316 15.3276 11.2001C15.4983 11.1695 15.7316 11.146 16.0821 11.111L16.0324 10.6134ZM14.8185 10.8586L14.5153 10.461C14.1338 10.7519 13.9389 11.2254 14.0027 11.6997L14.4982 11.633L14.9937 11.5663C14.9777 11.4469 15.027 11.3284 15.1217 11.2561L14.8185 10.8586ZM14.4982 11.633L14.0027 11.6998C14.0349 11.9385 14.1547 12.1444 14.2785 12.3226C14.4052 12.5049 14.5835 12.7223 14.7958 12.9818L15.1828 12.6652L15.5698 12.3486C15.3469 12.0761 15.1987 11.8944 15.0997 11.752C14.998 11.6055 14.9931 11.5613 14.9937 11.5661L14.4982 11.633ZM15.1828 12.6652L14.7958 12.9818C14.9151 13.1277 14.9889 13.2181 15.0408 13.2906C15.0897 13.3591 15.0982 13.3838 15.1001 13.3896L15.5763 13.2375L16.0526 13.0853C16.0062 12.94 15.9328 12.8189 15.8544 12.7093C15.779 12.6038 15.6802 12.4836 15.5698 12.3486L15.1828 12.6652ZM15.5763 13.2375L15.1 13.3896C15.1245 13.4661 15.1204 13.5495 15.0882 13.6237L15.547 13.8224L16.0059 14.0211C16.1339 13.7254 16.1508 13.3928 16.0526 13.0853L15.5763 13.2375ZM15.547 13.8224L15.0882 13.6237C15.0855 13.6299 15.0743 13.6541 15.019 13.7174C14.9605 13.7844 14.8781 13.8672 14.7452 14.0002L15.0988 14.3537L15.4524 14.7072C15.5762 14.5833 15.6864 14.4734 15.772 14.3754C15.8609 14.2736 15.9455 14.1606 16.0058 14.0212L15.547 13.8224ZM15.0988 14.3537L14.7452 14.0001L14.0011 14.7443L14.3547 15.0978L14.7082 15.4514L15.4523 14.7072L15.0988 14.3537ZM14.3547 15.0978L14.001 14.7443C13.713 15.0325 13.6612 15.0714 13.6243 15.0874L13.8234 15.5461L14.0225 16.0047C14.2768 15.8943 14.4829 15.6768 14.7083 15.4513L14.3547 15.0978ZM13.8234 15.5461L13.6246 15.0873C13.5505 15.1194 13.4672 15.1235 13.3905 15.099L13.2384 15.5754L13.0864 16.0517C13.3937 16.1498 13.7264 16.133 14.0222 16.0048L13.8234 15.5461ZM13.2384 15.5754L13.3906 15.0991C13.3842 15.097 13.3592 15.0883 13.2907 15.0395C13.2182 14.9878 13.1275 14.914 12.9818 14.7948L12.6652 15.1818L12.3486 15.5688C12.4841 15.6796 12.6044 15.7784 12.7104 15.8539C12.8204 15.9323 12.9414 16.0053 13.0863 16.0516L13.2384 15.5754ZM12.6652 15.1818L12.9818 14.7948C12.7223 14.5825 12.5049 14.4042 12.3226 14.2775C12.1444 14.1537 11.9386 14.034 11.6999 14.0017L11.633 14.4972L11.5661 14.9927C11.5613 14.9921 11.6056 14.9971 11.752 15.0988C11.8944 15.1977 12.0761 15.3459 12.3486 15.5688L12.6652 15.1818ZM11.633 14.4972L11.6995 14.0017C11.225 13.938 10.7526 14.1338 10.4622 14.514L10.8595 14.8175L11.2569 15.1211C11.3296 15.0259 11.448 14.9769 11.5665 14.9928L11.633 14.4972ZM10.8595 14.8175L10.462 14.5142C10.3158 14.7058 10.2548 14.9362 10.2163 15.15C10.1769 15.3687 10.1493 15.6488 10.1159 15.9827L10.6134 16.0324L11.111 16.0821C11.146 15.7316 11.1697 15.498 11.2005 15.3274C11.2321 15.1518 11.26 15.117 11.257 15.1208L10.8595 14.8175ZM10.6134 16.0324L10.1159 15.9827C10.0972 16.1701 10.0854 16.2863 10.0706 16.3741C10.0567 16.457 10.0452 16.4808 10.0421 16.4868L10.4865 16.716L10.9309 16.9452C11.0006 16.81 11.0345 16.6728 11.0568 16.5395C11.0784 16.4112 11.0936 16.2562 11.111 16.0821L10.6134 16.0324ZM10.4865 16.716L10.0422 16.4867C10.0053 16.5582 9.94364 16.614 9.86869 16.6437L10.0529 17.1086L10.2371 17.5734C10.5366 17.4547 10.783 17.2316 10.9308 16.9453L10.4865 16.716ZM10.0529 17.1086L9.86897 16.6436C9.86269 16.6461 9.83765 16.6553 9.75363 16.6609C9.66475 16.6669 9.54775 16.6672 9.35954 16.6672V17.1672V17.6672C9.53473 17.6672 9.69056 17.6674 9.82058 17.6586C9.95546 17.6496 10.0954 17.6295 10.2368 17.5735L10.0529 17.1086ZM9.35954 17.1672V16.6672H8.30778V17.1672V17.6672H9.35954V17.1672ZM8.30778 17.1672V16.6672C8.1195 16.6672 8.00253 16.6669 7.91367 16.6609C7.82971 16.6553 7.80469 16.6461 7.79837 16.6436L7.61442 17.1086L7.43047 17.5735C7.57192 17.6295 7.71184 17.6496 7.84674 17.6587C7.97675 17.6674 8.13258 17.6672 8.30778 17.6672V17.1672ZM7.61442 17.1086L7.79845 16.6437C7.72402 16.6142 7.66219 16.5584 7.62501 16.4864L7.18083 16.716L6.73664 16.9455C6.8843 17.2312 7.13051 17.4548 7.43039 17.5735L7.61442 17.1086ZM7.18083 16.716L7.62515 16.4867C7.60668 16.4509 7.59112 16.388 7.5504 15.9824L7.0529 16.0324L6.5554 16.0823C6.58731 16.4001 6.6093 16.6988 6.73651 16.9453L7.18083 16.716ZM7.0529 16.0324L7.5504 15.9824C7.51689 15.6488 7.48918 15.369 7.44983 15.1506C7.41135 14.937 7.35046 14.7068 7.20432 14.5152L6.8068 14.8185L6.40928 15.1218C6.40626 15.1178 6.43406 15.1525 6.46568 15.3279C6.49642 15.4985 6.5202 15.7319 6.5554 16.0823L7.0529 16.0324ZM6.8068 14.8185L7.20426 14.5152C6.91373 14.1345 6.44146 13.9388 5.96665 14.0027L6.03337 14.4982L6.10008 14.9937C6.21863 14.9778 6.33662 15.0266 6.40934 15.1219L6.8068 14.8185ZM6.03337 14.4982L5.96656 14.0027C5.72765 14.0349 5.52187 14.1549 5.34388 14.2787C5.16189 14.4053 4.9447 14.5837 4.68545 14.7958L5.00212 15.1828L5.31878 15.5697C5.59128 15.3467 5.7728 15.1985 5.91504 15.0995C6.06128 14.9978 6.10525 14.993 6.10017 14.9937L6.03337 14.4982ZM5.00212 15.1828L4.68545 14.7958C4.37083 15.0533 4.31503 15.0868 4.27663 15.0991L4.42887 15.5754L4.58112 16.0516C4.84512 15.9672 5.07133 15.7722 5.31878 15.5697L5.00212 15.1828ZM4.42887 15.5754L4.27664 15.0991C4.20006 15.1236 4.11701 15.1195 4.04273 15.0873L3.84391 15.5461L3.6451 16.0048C3.94096 16.133 4.27344 16.15 4.58111 16.0516L4.42887 15.5754ZM3.84391 15.5461L4.04284 15.0873C4.0061 15.0714 3.95456 15.0326 3.66622 14.7443L3.31266 15.0978L2.95911 15.4514C3.18421 15.6765 3.39053 15.8944 3.64499 16.0048L3.84391 15.5461ZM3.31266 15.0978L3.66622 14.7443L2.92305 14.0011L2.5695 14.3547L2.21595 14.7082L2.95911 15.4514L3.31266 15.0978ZM2.5695 14.3547L2.92305 14.0011C2.78976 13.8678 2.70716 13.785 2.64827 13.7178C2.5926 13.6543 2.58154 13.6303 2.57902 13.6245L2.12028 13.8234L1.66154 14.0223C1.72219 14.1622 1.80731 14.2754 1.89624 14.3769C1.98195 14.4747 2.09238 14.5846 2.21595 14.7082L2.5695 14.3547ZM2.12028 13.8234L2.57912 13.6247C2.54708 13.5507 2.5429 13.467 2.56735 13.3903L2.09098 13.2384L1.61462 13.0865C1.51669 13.3936 1.53344 13.7264 1.66144 14.0221L2.12028 13.8234ZM2.09098 13.2384L2.5673 13.3905C2.5693 13.3842 2.57795 13.3593 2.6268 13.2907C2.67852 13.2182 2.75233 13.1276 2.87159 12.9817L2.48454 12.6652L2.09748 12.3487C1.98675 12.4841 1.88793 12.6045 1.81245 12.7104C1.73408 12.8203 1.66096 12.9414 1.61466 13.0864L2.09098 13.2384ZM2.48454 12.6652L2.87159 12.9817C3.08382 12.7222 3.26209 12.5048 3.38873 12.3226C3.51257 12.1444 3.63233 11.9386 3.6646 11.7L3.16911 11.633L2.67362 11.566C2.67426 11.5612 2.66931 11.6055 2.56755 11.7519C2.46859 11.8943 2.32039 12.0761 2.09748 12.3487L2.48454 12.6652ZM3.16911 11.633L3.66467 11.6995C3.72833 11.2251 3.53285 10.7526 3.15214 10.4621L2.8488 10.8595L2.54545 11.257C2.6405 11.3295 2.68949 11.4477 2.67355 11.5665L3.16911 11.633ZM2.8488 10.8595L3.15204 10.462C2.9606 10.316 2.73058 10.2549 2.5168 10.2164C2.29826 10.1769 2.01845 10.1493 1.68461 10.1159L1.63493 10.6134L1.58525 11.111C1.93554 11.1459 2.16882 11.1697 2.33925 11.2005C2.51444 11.2321 2.5493 11.2599 2.54556 11.2571L2.8488 10.8595ZM1.63493 10.6134L1.68461 10.1159C1.49725 10.0972 1.38101 10.0853 1.29321 10.0706C1.21029 10.0567 1.18644 10.0452 1.18052 10.0421L0.951335 10.4865L0.722154 10.9309C0.857367 11.0006 0.994564 11.0345 1.12778 11.0568C1.25612 11.0784 1.4111 11.0936 1.58525 11.111L1.63493 10.6134ZM0.951335 10.4865L1.18062 10.0422C1.10976 10.0056 1.05369 9.94383 1.02371 9.86803L0.558757 10.0519L0.0938007 10.2358C0.21208 10.5349 0.434687 10.7825 0.722051 10.9308L0.951335 10.4865ZM0.558757 10.0519L1.02383 9.86833C1.00911 9.83103 1.00016 9.76738 1.00016 9.35954H0.500163H0.000163257C0.000163257 9.67776 -0.00813967 9.97758 0.093683 10.2355L0.558757 10.0519ZM0.500163 9.35954H1.00016V8.30778H0.500163H0.000163257V9.35954H0.500163ZM0.500163 8.30778H1.00016C1.00016 8.11953 1.00046 8.00255 1.00642 7.91368C1.01205 7.82968 1.0212 7.80466 1.02369 7.79838L0.558757 7.61442L0.0938289 7.43046C0.037861 7.57191 0.0177105 7.71185 0.00866148 7.84674C-6.02007e-05 7.97676 0.000163257 8.13259 0.000163257 8.30778H0.500163ZM0.558757 7.61442L1.02364 7.79851C1.05323 7.72378 1.10898 7.66214 1.18071 7.62511L0.951335 7.18083L0.721963 6.73654C0.435814 6.88427 0.212566 7.13061 0.0938778 7.43034L0.558757 7.61442ZM0.951335 7.18083L1.18065 7.62514C1.18646 7.62214 1.21016 7.61063 1.29309 7.59673C1.38096 7.58201 1.49717 7.57017 1.68475 7.55139L1.63493 7.05387L1.58511 6.55636C1.41107 6.57379 1.25607 6.589 1.12784 6.61048C0.994665 6.6328 0.857372 6.66666 0.722017 6.73652L0.951335 7.18083ZM1.63493 7.05387L1.68475 7.55139C2.01843 7.51797 2.29817 7.49026 2.51665 7.45085C2.73034 7.41231 2.96035 7.35136 3.15179 7.20551L2.8488 6.80778L2.5458 6.41005C2.54946 6.40726 2.51448 6.43511 2.33916 6.46673C2.16862 6.49749 1.93532 6.52129 1.58511 6.55636L1.63493 7.05387ZM2.8488 6.80778L3.15222 7.20519C3.53272 6.91468 3.72828 6.44222 3.66467 5.96789L3.16911 6.03434L2.67354 6.1008C2.68946 6.21947 2.64043 6.3378 2.54537 6.41037L2.8488 6.80778ZM3.16911 6.03434L3.66467 5.96785C3.6326 5.72885 3.51278 5.52293 3.38889 5.34468C3.26223 5.16246 3.08386 4.94506 2.87154 4.68552L2.48454 5.00212L2.09754 5.31871C2.32062 5.5914 2.46883 5.77309 2.56776 5.91542C2.66945 6.06172 2.67422 6.1058 2.67355 6.10084L3.16911 6.03434ZM2.48454 5.00212L2.87154 4.68552C2.75233 4.53981 2.67852 4.44919 2.62684 4.37665C2.57801 4.30812 2.5693 4.28307 2.56727 4.27672L2.09098 4.42887L1.6147 4.58102C1.66099 4.72594 1.73405 4.84694 1.81242 4.95693C1.88794 5.06291 1.98675 5.18328 2.09754 5.31871L2.48454 5.00212ZM2.09098 4.42887L2.5673 4.27682C2.54288 4.20032 2.547 4.11677 2.57913 4.04254L2.12028 3.84391L1.66143 3.64528C1.53348 3.94085 1.51654 4.27355 1.61467 4.58093L2.09098 4.42887ZM2.12028 3.84391L2.57909 4.04265C2.58182 4.03634 2.59306 4.01219 2.6483 3.94896C2.7068 3.88201 2.78917 3.79918 2.92215 3.66614L2.56852 3.31266L2.2149 2.95918C2.09111 3.08302 1.98091 3.19296 1.89526 3.29099C1.80635 3.39274 1.72185 3.50579 1.66147 3.64518L2.12028 3.84391ZM2.56852 3.31266L2.92208 3.66622L3.66622 2.92208L3.31266 2.56852L2.95911 2.21497L2.21497 2.95911L2.56852 3.31266ZM3.31266 2.56852L3.66629 2.922C3.9543 2.63387 4.00611 2.59495 4.04299 2.57894L3.84391 2.12028L3.64484 1.66162C3.39051 1.77201 3.18442 1.98957 2.95904 2.21504L3.31266 2.56852ZM3.84391 2.12028L4.04274 2.57905C4.11681 2.54695 4.20006 2.54279 4.27681 2.5673L4.42887 2.09098L4.58094 1.61467C4.27357 1.51654 3.94099 1.53327 3.64508 1.66151L3.84391 2.12028ZM4.42887 2.09098L4.27672 2.56727C4.31506 2.57952 4.37061 2.61294 4.68552 2.87056L5.00212 2.48356L5.31871 2.09656C5.0715 1.89433 4.84513 1.69906 4.58102 1.6147L4.42887 2.09098ZM5.00212 2.48356L4.68552 2.87056C4.94502 3.08285 5.16242 3.26119 5.34469 3.38786C5.52292 3.51172 5.72884 3.63155 5.9677 3.66367L6.03434 3.16813L6.10098 2.67259C6.10593 2.67326 6.06177 2.66843 5.91538 2.56669C5.77302 2.46776 5.59127 2.31954 5.31871 2.09656L5.00212 2.48356ZM6.03434 3.16813L5.96786 3.66369C6.44221 3.72733 6.91469 3.53193 7.20527 3.15114L6.80778 2.84782L6.41029 2.5445C6.33779 2.63951 6.21964 2.68851 6.10083 2.67257L6.03434 3.16813ZM6.80778 2.84782L7.20545 3.1509C7.35127 2.95957 7.41226 2.72972 7.45083 2.51613C7.49025 2.29777 7.51798 2.01823 7.55138 1.68476L7.05387 1.63493L6.55636 1.58509C6.52131 1.93503 6.4975 2.16811 6.46674 2.33844C6.43513 2.51353 6.4073 2.54843 6.41011 2.54474L6.80778 2.84782ZM7.05387 1.63493L7.55138 1.68476C7.57016 1.49736 7.58202 1.3811 7.59675 1.29317C7.61067 1.21009 7.62221 1.18634 7.62517 1.18059L7.18083 0.951335L6.73649 0.722075C6.66666 0.857413 6.63281 0.994779 6.6105 1.12789C6.58901 1.25615 6.57379 1.41114 6.55636 1.58509L7.05387 1.63493ZM7.18083 0.951335L7.62513 1.18068C7.66215 1.10895 7.72373 1.05324 7.79849 1.02364L7.61442 0.558757L7.43035 0.0938732C7.1306 0.212561 6.88427 0.435774 6.73653 0.721994L7.18083 0.951335ZM7.61442 0.558757L7.79825 1.02374C7.80461 1.02122 7.82965 1.01209 7.91344 1.00645C8.00211 1.00048 8.1189 1.00016 8.3068 1.00016V0.500163V0.000163078C8.1318 0.000163078 7.97618 -3.38554e-05 7.84629 0.00870839C7.71151 0.0177794 7.57181 0.0379452 7.43059 0.0937769L7.61442 0.558757ZM8.3068 0.500163V1.00016H9.35954V0.500163V0.000163078H8.3068V0.500163ZM8.83317 5.50016L8.83312 5.00016C6.71633 5.00037 5.00037 6.71633 5.00016 8.83312L5.50016 8.83317L6.00016 8.83322C6.00031 7.26863 7.26863 6.00031 8.83322 6.00016L8.83317 5.50016ZM5.50016 8.83317H5.00016C5.00016 10.95 6.71608 12.667 8.83312 12.6672L8.83317 12.1672L8.83322 11.6672C7.26867 11.667 6.00016 10.398 6.00016 8.83317H5.50016ZM8.83317 12.1672V12.6672C10.9503 12.6672 12.6672 10.9503 12.6672 8.83317H12.1672H11.6672C11.6672 10.398 10.398 11.6672 8.83317 11.6672V12.1672ZM12.1672 8.83317L12.6672 8.83312C12.667 6.71608 10.95 5.00016 8.83317 5.00016V5.50016V6.00016C10.398 6.00016 11.667 7.26867 11.6672 8.83322L12.1672 8.83317Z" fill="var(--stroke-0, #000718)"/>
</svg>
