<svg preserveAspectRatio="none" width="100%" height="100%" overflow="visible" style="display: block;" viewBox="0 0 10.6667 10.6667" fill="none" xmlns="http://www.w3.org/2000/svg">
<g id="Broken_heart_duotone">
<path id="Subtract" d="M5.4476 2.66667C7.71598 2.66669 9.02124 4.35213 9.54233 5.21842C9.67078 5.43198 9.73457 5.53901 9.72787 5.70964C9.7211 5.8801 9.64632 5.98503 9.49643 6.19499C8.88378 7.05311 7.41143 8.77309 5.4476 8.77311C3.48378 8.77311 2.01144 7.05314 1.39877 6.19499C1.24887 5.98502 1.17311 5.88012 1.16635 5.70964C1.15965 5.53901 1.22442 5.43198 1.35287 5.21842C1.87398 4.35212 3.17922 2.66667 5.4476 2.66667ZM5.44662 4.41178C4.72433 4.412 4.13925 4.99712 4.139 5.7194C4.139 6.4419 4.72418 7.02778 5.44662 7.02799C6.16925 7.02799 6.75522 6.44203 6.75522 5.7194C6.75497 4.99698 6.1691 4.41178 5.44662 4.41178Z" fill="var(--fill-0, #101010)"/>
</g>
</svg>
