<svg preserveAspectRatio="none" width="100%" height="100%" overflow="visible" style="display: block;" viewBox="0 0 12.0764 12.0764" fill="none" xmlns="http://www.w3.org/2000/svg">
<g id="Loading">
<path id="Vector" d="M6.03862 3.52225C5.76186 3.52225 5.53543 3.29582 5.53543 3.01907V1.00633C5.53543 0.729579 5.76186 0.503146 6.03862 0.503146C6.31537 0.503146 6.5418 0.729579 6.5418 1.00633V3.01907C6.5418 3.29582 6.31537 3.52225 6.03862 3.52225ZM6.03862 11.5732C5.76186 11.5732 5.53543 11.3468 5.53543 11.07V9.05729C5.53543 8.78053 5.76186 8.5541 6.03862 8.5541C6.31537 8.5541 6.5418 8.78053 6.5418 9.05729V11.07C6.5418 11.3468 6.31537 11.5732 6.03862 11.5732ZM11.0705 6.54136H9.05772C8.78097 6.54136 8.55454 6.31493 8.55454 6.03818C8.55454 5.76143 8.78097 5.53499 9.05772 5.53499H11.0705C11.3472 5.53499 11.5736 5.76143 11.5736 6.03818C11.5736 6.31493 11.3472 6.54136 11.0705 6.54136ZM3.01951 6.54136H1.00677C0.730017 6.54136 0.503584 6.31493 0.503584 6.03818C0.503584 5.76143 0.730017 5.53499 1.00677 5.53499H3.01951C3.29626 5.53499 3.52269 5.76143 3.52269 6.03818C3.52269 6.31493 3.29626 6.54136 3.01951 6.54136ZM9.59613 10.0989C9.4653 10.0989 9.33951 10.0486 9.23887 9.95296L7.81486 8.52894C7.76827 8.48236 7.73132 8.42705 7.70611 8.36618C7.68089 8.30532 7.66792 8.24008 7.66792 8.1742C7.66792 8.10832 7.68089 8.04308 7.70611 7.98221C7.73132 7.92134 7.76827 7.86604 7.81486 7.81945C7.86144 7.77287 7.91675 7.73591 7.97762 7.7107C8.03848 7.68549 8.10372 7.67251 8.1696 7.67251C8.23549 7.67251 8.30072 7.68549 8.36159 7.7107C8.42246 7.73591 8.47776 7.77287 8.52435 7.81945L9.94836 9.24346C10.0186 9.31374 10.0663 9.40329 10.0855 9.50075C10.1048 9.59822 10.0946 9.69919 10.0563 9.79086C10.018 9.88253 9.95336 9.96075 9.87053 10.0156C9.7877 10.0704 9.69044 10.0994 9.5911 10.0989H9.59613ZM3.90511 4.40786C3.77428 4.40786 3.64849 4.35754 3.54785 4.26194L2.12384 2.83792C2.07725 2.79134 2.0403 2.73603 2.01509 2.67516C1.98987 2.6143 1.9769 2.54906 1.9769 2.48318C1.9769 2.4173 1.98987 2.35206 2.01509 2.29119C2.0403 2.23032 2.07725 2.17502 2.12384 2.12843C2.17042 2.08185 2.22573 2.04489 2.2866 2.01968C2.34746 1.99447 2.4127 1.98149 2.47858 1.98149C2.54447 1.98149 2.6097 1.99447 2.67057 2.01968C2.73144 2.04489 2.78674 2.08185 2.83333 2.12843L4.25734 3.55245C4.32756 3.62272 4.37531 3.71227 4.39453 3.80973C4.41375 3.9072 4.40357 4.00817 4.36529 4.09984C4.327 4.19151 4.26234 4.26973 4.17951 4.32457C4.09668 4.37941 3.99942 4.4084 3.90008 4.40786H3.90511ZM2.4811 10.0989C2.35027 10.0989 2.22448 10.0486 2.12384 9.95296C2.07719 9.9064 2.04018 9.85111 2.01493 9.79024C1.98968 9.72937 1.97669 9.66411 1.97669 9.59821C1.97669 9.53231 1.98968 9.46705 2.01493 9.40618C2.04018 9.34531 2.07719 9.29002 2.12384 9.24346L3.54785 7.81945C3.59444 7.77287 3.64974 7.73591 3.71061 7.7107C3.77148 7.68549 3.83671 7.67251 3.9026 7.67251C3.96848 7.67251 4.03372 7.68549 4.09458 7.7107C4.15545 7.73591 4.21076 7.77287 4.25734 7.81945C4.30393 7.86604 4.34088 7.92134 4.36609 7.98221C4.39131 8.04308 4.40428 8.10832 4.40428 8.1742C4.40428 8.24008 4.39131 8.30532 4.36609 8.36618C4.34088 8.42705 4.30393 8.48236 4.25734 8.52894L2.83333 9.95296C2.73269 10.0536 2.6069 10.0989 2.47607 10.0989H2.4811ZM8.17212 4.40786C8.04129 4.40786 7.91549 4.35754 7.81486 4.26194C7.76821 4.21538 7.7312 4.16009 7.70595 4.09922C7.6807 4.03835 7.6677 3.97309 7.6677 3.90719C7.6677 3.84129 7.6807 3.77603 7.70595 3.71516C7.7312 3.65429 7.76821 3.599 7.81486 3.55245L9.23887 2.12843C9.28546 2.08185 9.34076 2.04489 9.40163 2.01968C9.4625 1.99447 9.52773 1.98149 9.59362 1.98149C9.6595 1.98149 9.72474 1.99447 9.7856 2.01968C9.84647 2.04489 9.90178 2.08185 9.94836 2.12843C9.99495 2.17502 10.0319 2.23032 10.0571 2.29119C10.0823 2.35206 10.0953 2.4173 10.0953 2.48318C10.0953 2.54906 10.0823 2.6143 10.0571 2.67516C10.0319 2.73603 9.99495 2.79134 9.94836 2.83792L8.52435 4.26194C8.42371 4.36257 8.29792 4.40786 8.16709 4.40786H8.17212Z" fill="var(--fill-0, #375EF9)"/>
</g>
</svg>
