<svg preserveAspectRatio="none" width="100%" height="100%" overflow="visible" style="display: block;" viewBox="0 0 7.74525 7.74525" fill="none" xmlns="http://www.w3.org/2000/svg">
<path id="Vector" d="M3.8715 0C2.84507 0.00158735 1.86115 0.410089 1.13542 1.13595C0.409699 1.86182 0.00138852 2.84582 0 3.87225C0.00119057 4.89894 0.409517 5.88325 1.13543 6.60929C1.86133 7.33534 2.84556 7.74386 3.87225 7.74525C4.89907 7.74406 5.88349 7.33563 6.60956 6.60956C7.33563 5.88349 7.74406 4.89907 7.74525 3.87225C7.74366 2.84556 7.33495 1.86141 6.60876 1.13565C5.88257 0.409878 4.89819 0.001742 3.8715 0.000750303V0ZM3.8715 6.23925C3.24393 6.23925 2.64207 5.98995 2.19831 5.54619C1.75455 5.10243 1.50525 4.50057 1.50525 3.873C1.50525 3.24543 1.75455 2.64357 2.19831 2.19981C2.64207 1.75605 3.24393 1.50675 3.8715 1.50675C4.49907 1.50675 5.10093 1.75605 5.54469 2.19981C5.98845 2.64357 6.23775 3.24543 6.23775 3.873C6.23775 4.50057 5.98845 5.10243 5.54469 5.54619C5.10093 5.98995 4.49907 6.23925 3.8715 6.23925V6.23925Z" fill="var(--fill-0, #34CC32)"/>
</svg>
