<svg preserveAspectRatio="none" width="100%" height="100%" overflow="visible" style="display: block;" viewBox="0 0 44.7837 43.2739" fill="none" xmlns="http://www.w3.org/2000/svg">
<g id="Group 6">
<g id="Group 5">
<path id="Rectangle 7" d="M16.6051 1.0069L29.4362 1.0069V8.30279C29.4363 12.1933 32.5905 15.3467 36.4811 15.3467H43.777V37.2354C43.777 40.0143 41.5246 42.2674 38.7457 42.2676H16.6051C13.8262 42.2676 11.5739 40.0144 11.5739 37.2354L11.5739 6.03815C11.5739 3.25924 13.8262 1.00697 16.6051 1.0069ZM31.4489 2.42975L42.3532 13.334H36.4811C33.7021 13.334 31.449 11.0817 31.4489 8.30279V2.42975Z" fill="var(--fill-0, #EEF1F7)" stroke="var(--stroke-0, #CBD0DC)" stroke-width="2.01274"/>
<rect id="Rectangle 8" x="9.52774e-05" y="19.1211" width="30.1911" height="17.6115" rx="3.52229" fill="var(--fill-0, #D82042)"/>
</g>
<g id="PDF">
<path d="M5.00381 32.2039L5.00381 23.787H8.00397C8.6588 23.787 9.2013 23.9061 9.63146 24.1445C10.0616 24.3829 10.3836 24.7089 10.5973 25.1227C10.811 25.5336 10.9178 25.9967 10.9178 26.5118C10.9178 27.0296 10.8096 27.4954 10.5932 27.9091C10.3794 28.3201 10.0561 28.6461 9.62324 28.8872C9.19308 29.1256 8.65195 29.2448 7.99986 29.2448H5.93673V28.168H7.88479C8.29851 28.168 8.63415 28.0968 8.89169 27.9543C9.14924 27.8091 9.33829 27.6118 9.45885 27.3625C9.5794 27.1132 9.63968 26.8296 9.63968 26.5118C9.63968 26.1939 9.5794 25.9117 9.45885 25.6652C9.33829 25.4186 9.14787 25.2254 8.88758 25.0857C8.63004 24.9459 8.29029 24.8761 7.86835 24.8761H6.27374V32.2039H5.00381Z" fill="var(--fill-0, white)"/>
<path d="M15.1314 32.2039H12.4066V23.787H15.2177C16.0424 23.787 16.7507 23.9555 17.3425 24.2925C17.9343 24.6267 18.3878 25.1076 18.7029 25.735C19.0207 26.3597 19.1796 27.1091 19.1796 27.9831C19.1796 28.8598 19.0193 29.6133 18.6987 30.2435C18.3809 30.8737 17.9206 31.3586 17.3178 31.6984C16.7151 32.0354 15.9863 32.2039 15.1314 32.2039ZM13.6765 31.0942H15.0616C15.7027 31.0942 16.2356 30.9737 16.6603 30.7326C17.085 30.4887 17.4028 30.1366 17.6138 29.6763C17.8247 29.2133 17.9302 28.6489 17.9302 27.9831C17.9302 27.3228 17.8247 26.7625 17.6138 26.3022C17.4055 25.8419 17.0945 25.4925 16.6808 25.2542C16.2671 25.0158 15.7534 24.8966 15.1396 24.8966H13.6765V31.0942Z" fill="var(--fill-0, white)"/>
<path d="M20.7588 32.2039V23.787H25.9783V24.8802H22.0287V27.4447H25.6043V28.5338H22.0287V32.2039H20.7588Z" fill="var(--fill-0, white)"/>
</g>
</g>
</svg>
