<svg preserveAspectRatio="none" width="100%" height="100%" overflow="visible" style="display: block;" viewBox="0 0 15 11.8333" fill="none" xmlns="http://www.w3.org/2000/svg">
<path id="Rectangle 41" d="M0 0.5H15C14.1463 0.5 13.7194 0.5 13.3788 0.628188C12.8398 0.831065 12.4144 1.25647 12.2115 1.7955C12.0833 2.13609 12.0833 2.56295 12.0833 3.41667V7.33334C12.0833 9.21895 12.0833 10.1618 11.4975 10.7475C10.9118 11.3333 9.96895 11.3333 8.08333 11.3333H6.91667C5.03105 11.3333 4.08824 11.3333 3.50245 10.7475C2.91667 10.1618 2.91667 9.21895 2.91667 7.33333V3.41666C2.91667 2.56295 2.91667 2.13609 2.78848 1.7955C2.5856 1.25647 2.1602 0.831065 1.62117 0.628188C1.28058 0.5 0.853719 0.5 0 0.5Z" stroke="var(--stroke-0, #FF5D5D)" stroke-linecap="round"/>
</svg>
