<svg preserveAspectRatio="none" width="100%" height="100%" overflow="visible" style="display: block;" viewBox="0 0 17.5 22.5" fill="none" xmlns="http://www.w3.org/2000/svg">
<path id="Rectangle 4152" d="M0.625001 3.62504C0.625001 2.57494 0.625001 2.04989 0.829363 1.64881C1.00913 1.296 1.29596 1.00916 1.64877 0.829402C2.04985 0.625039 2.5749 0.625039 3.625 0.625039H9.38236C9.84097 0.625039 10.0703 0.625039 10.2861 0.676846C10.4774 0.722777 10.6603 0.798535 10.828 0.901339C11.0173 1.01729 11.1794 1.17943 11.5037 1.50372L15.9963 5.99636C16.3206 6.32064 16.4827 6.48279 16.5987 6.67201C16.7015 6.83977 16.7773 7.02266 16.8232 7.21398C16.875 7.42977 16.875 7.65907 16.875 8.11768V18.875C16.875 19.9251 16.875 20.4502 16.6706 20.8513C16.4909 21.2041 16.204 21.4909 15.8512 21.6707C15.4501 21.875 14.9251 21.875 13.875 21.875H3.625C2.5749 21.875 2.04985 21.875 1.64877 21.6707C1.29596 21.4909 1.00913 21.2041 0.829363 20.8513C0.625001 20.4502 0.625001 19.9251 0.625001 18.875V3.62504Z" stroke="var(--stroke-0, #34CC32)" stroke-width="1.25"/>
</svg>
