<svg preserveAspectRatio="none" width="100%" height="100%" overflow="visible" style="display: block;" viewBox="0 0 14.2246 14.2246" fill="none" xmlns="http://www.w3.org/2000/svg">
<path id="Vector 189" d="M11.2953 9.10784L13.5021 11.3146C13.7988 11.6114 13.7988 12.0925 13.5021 12.3892C11.8977 13.9936 9.35782 14.1741 7.54271 12.8127L6.22986 11.8281C4.77692 10.7384 3.48624 9.44772 2.39653 7.99478L1.41189 6.68193C0.0505598 4.86682 0.231066 2.32691 1.83541 0.72256C2.13216 0.425814 2.61328 0.425813 2.91003 0.72256L5.1168 2.92933C5.44224 3.25477 5.44224 3.7824 5.1168 4.10784L4.26584 4.9588C4.13061 5.09403 4.09708 5.30064 4.18261 5.4717C5.17149 7.44946 6.77518 9.05315 8.75294 10.042C8.924 10.1276 9.1306 10.094 9.26584 9.9588L10.1168 9.10784C10.4422 8.7824 10.9699 8.7824 11.2953 9.10784Z" stroke="var(--stroke-0, #34CC32)"/>
</svg>
