<svg preserveAspectRatio="none" width="100%" height="100%" overflow="visible" style="display: block;" viewBox="0 0 39.9998 34.3531" fill="none" xmlns="http://www.w3.org/2000/svg">
<g id="Group 15914">
<path id="path5" d="M20.0125 0C22.053 3.50546 24.1112 7.00061 26.1297 10.5193C22.8672 16.2744 19.6518 22.0574 16.2788 27.7492C14.9847 29.934 13.7259 32.1395 12.4465 34.3317C8.29767 34.3567 4.14883 34.3552 0 34.3493C0.126615 34.0652 0.251757 33.7796 0.404872 33.5087C6.9373 22.3372 13.4948 11.1804 20.0125 0Z" fill="var(--fill-0, white)"/>
<path id="path23" d="M20.0138 21.3707C24.1774 21.3692 28.3409 21.3398 32.5045 21.409C34.9838 25.7315 37.5426 30.007 39.9998 34.3413C35.8362 34.3619 31.6742 34.3458 27.5106 34.3428C25.0328 30.0055 22.4445 25.7345 20.0138 21.3707Z" fill="var(--fill-0, white)"/>
</g>
</svg>
