<svg preserveAspectRatio="none" width="100%" height="100%" overflow="visible" style="display: block;" viewBox="0 0 50 23.0143" fill="none" xmlns="http://www.w3.org/2000/svg">
<path id="Vector" d="M25.2228 0C12.69 0.00241961 1.40575 4.27706 0.116094 10.0059C-0.741254 13.8168 3.23255 17.7261 9.30577 20.0134C16.4097 13.5595 24.4445 6.73135 34.9262 2.04134C25.3712 8.18957 18.3228 14.9451 12.5811 21.1224C14.512 21.6273 16.6219 22.0894 18.8568 22.3459C22.0837 17.3639 25.676 11.1649 36.2868 2.14216C28.5788 11.4117 24.9832 16.9163 21.87 22.7347C33.343 23.7614 46.6928 22.3233 49.8729 12.2497C51.2465 6.13774 41.3269 0.693621 27.7424 0.0742014C26.9032 0.0302939 26.0631 0.00555364 25.2228 0ZM24.7687 0.932356C29.8547 0.873479 33.8422 1.43644 33.8422 1.43644C23.9815 4.96585 17.034 8.57832 7.88224 13.7611C7.97095 13.8498 0.660508 12.6989 5.9159 6.65393C9.88245 2.09054 18.2301 1.00817 24.7687 0.932356ZM37.6483 2.62124C37.6483 2.62124 44.3224 3.46649 45.9661 9.37599C47.7743 15.8831 30.6338 18.4923 29.4821 17.5164C32.6534 9.85104 33.5898 9.78571 37.6483 2.62124Z" fill="var(--fill-0, #FF0000)"/>
</svg>
