<svg preserveAspectRatio="none" width="100%" height="100%" overflow="visible" style="display: block;" viewBox="0 0 14.9692 14.304" fill="none" xmlns="http://www.w3.org/2000/svg">
<path id="Vector" d="M14.9692 8.76975V14.304H11.7607V9.14025C11.7607 7.84275 11.2965 6.95775 10.1355 6.95775C9.249 6.95775 8.721 7.55475 8.48925 8.1315C8.4045 8.33775 8.38275 8.625 8.38275 8.91375V14.304H5.17275C5.17275 14.304 5.21625 5.559 5.17275 4.65225H8.38275V6.02025L8.36175 6.05175H8.38275V6.02025C8.80875 5.364 9.57 4.42575 11.2747 4.42575C13.386 4.42575 14.9692 5.80575 14.9692 8.76975V8.76975ZM1.81575 0C0.7185 0 0 0.72 0 1.66725C0 2.5935 0.6975 3.33525 1.77375 3.33525H1.79475C2.9145 3.33525 3.60975 2.5935 3.60975 1.66725C3.59025 0.72 2.91525 0 1.8165 0H1.81575ZM0.1905 14.304H3.399V4.65225H0.1905V14.304Z" fill="var(--fill-0, #34CC32)"/>
</svg>
