<svg preserveAspectRatio="none" width="100%" height="100%" overflow="visible" style="display: block;" viewBox="0 0 145.533 18.078" fill="none" xmlns="http://www.w3.org/2000/svg">
<g id="ConvergenSEE">
<path id="Vector" d="M133.754 14.3434V0.246231H145.389V3.11901H137.428V5.76607H144.384V8.57729H137.428V11.4706H145.533V14.3434H133.754Z" fill="var(--fill-0, #34CC32)"/>
<path id="Vector_2" d="M119.407 14.3434V0.246231H131.041V3.11901H123.08V5.76607H130.036V8.57729H123.08V11.4706H131.185V14.3434H119.407Z" fill="var(--fill-0, #34CC32)"/>
<path id="Vector_3" d="M110.906 14.5896C110.017 14.5896 109.182 14.5075 108.403 14.3434C107.623 14.1929 106.932 13.9398 106.33 13.5841C105.742 13.2285 105.277 12.7633 104.935 12.1888C104.593 11.6006 104.422 10.8824 104.422 10.0342C104.422 9.97948 104.422 9.91792 104.422 9.84952C104.422 9.78113 104.429 9.72641 104.442 9.68537H107.992C107.992 9.72641 107.985 9.78113 107.972 9.84952C107.972 9.90424 107.972 9.95212 107.972 9.99316C107.972 10.4309 108.081 10.7866 108.3 11.0602C108.533 11.3201 108.854 11.5116 109.264 11.6348C109.675 11.7442 110.154 11.7989 110.701 11.7989C111.002 11.7989 111.282 11.7852 111.542 11.7579C111.802 11.7305 112.035 11.6826 112.24 11.6142C112.445 11.5458 112.623 11.4638 112.773 11.368C112.938 11.2586 113.054 11.1354 113.122 10.9986C113.204 10.8482 113.245 10.6772 113.245 10.4856C113.245 10.171 113.122 9.91108 112.876 9.70589C112.643 9.50069 112.322 9.32969 111.912 9.19289C111.515 9.05609 111.063 8.92613 110.557 8.80301C110.051 8.67989 109.524 8.54994 108.977 8.41314C108.43 8.27634 107.903 8.10534 107.397 7.90014C106.891 7.69494 106.433 7.43502 106.022 7.12039C105.626 6.80575 105.304 6.41587 105.058 5.95076C104.825 5.47196 104.709 4.8974 104.709 4.22709C104.709 3.48837 104.866 2.85226 105.181 2.31874C105.496 1.77155 105.927 1.32695 106.474 0.984953C107.035 0.642955 107.678 0.396717 108.403 0.246239C109.128 0.0820795 109.901 0 110.721 0C111.529 0 112.281 0.0820795 112.979 0.246239C113.69 0.410398 114.319 0.670316 114.866 1.02599C115.414 1.36799 115.838 1.80575 116.139 2.33926C116.453 2.8591 116.617 3.48837 116.631 4.22709V4.47333H113.102V4.32969C113.102 4.01505 113.013 3.74145 112.835 3.50889C112.671 3.26266 112.418 3.07114 112.076 2.93434C111.734 2.78386 111.31 2.70862 110.803 2.70862C110.297 2.70862 109.866 2.7565 109.511 2.85226C109.169 2.94802 108.902 3.08482 108.71 3.26266C108.533 3.44049 108.444 3.65253 108.444 3.89877C108.444 4.19973 108.56 4.44597 108.793 4.63748C109.039 4.829 109.367 4.99316 109.778 5.12996C110.188 5.26676 110.646 5.39672 111.152 5.51984C111.658 5.62928 112.178 5.7524 112.712 5.8892C113.259 6.01231 113.786 6.17647 114.292 6.38167C114.798 6.57319 115.256 6.82627 115.667 7.14091C116.077 7.44186 116.399 7.81806 116.631 8.2695C116.877 8.72093 117 9.26813 117 9.91108C117 11.0328 116.734 11.9357 116.2 12.6197C115.68 13.3037 114.955 13.803 114.025 14.1177C113.109 14.4323 112.069 14.5896 110.906 14.5896Z" fill="var(--fill-0, #34CC32)"/>
<path id="Vector_4" d="M92.8696 14.3434V3.54993H94.9627L95.1679 4.98632H95.3115C95.5577 4.658 95.845 4.37072 96.1733 4.12448C96.5153 3.86457 96.8984 3.66621 97.3224 3.52941C97.7602 3.37893 98.239 3.30369 98.7588 3.30369C99.4428 3.30369 100.045 3.42681 100.565 3.67305C101.098 3.91929 101.515 4.316 101.816 4.8632C102.117 5.41039 102.268 6.14227 102.268 7.05882V14.3434H99.7438V7.51026C99.7438 7.12722 99.6959 6.81258 99.6001 6.56635C99.5181 6.30643 99.3881 6.10123 99.2103 5.95075C99.0461 5.78659 98.8409 5.67031 98.5947 5.60191C98.3484 5.53351 98.0748 5.49931 97.7739 5.49931C97.3224 5.49931 96.912 5.60875 96.5427 5.82763C96.187 6.04651 95.8997 6.34747 95.6809 6.7305C95.4757 7.11354 95.3731 7.55814 95.3731 8.06429V14.3434H92.8696Z" fill="var(--fill-0, white)"/>
<path id="Vector_5" d="M86.0049 14.5896C84.8558 14.5896 83.8982 14.3912 83.1321 13.9945C82.366 13.5841 81.7915 12.9617 81.4084 12.1272C81.0254 11.2927 80.8339 10.2326 80.8339 8.94665C80.8339 7.64706 81.0254 6.58687 81.4084 5.76607C81.7915 4.9316 82.366 4.316 83.1321 3.91929C83.8982 3.50889 84.8558 3.30369 86.0049 3.30369C87.0446 3.30369 87.9132 3.50205 88.6109 3.89877C89.3223 4.2818 89.8558 4.87688 90.2115 5.68399C90.5671 6.49111 90.745 7.53762 90.745 8.82353V9.56224H83.3989C83.4262 10.2326 83.5288 10.8003 83.7067 11.2654C83.8845 11.7168 84.1581 12.0588 84.5275 12.2914C84.9105 12.5103 85.4098 12.6197 86.0254 12.6197C86.34 12.6197 86.6342 12.5787 86.9078 12.4966C87.1814 12.4145 87.4208 12.2914 87.626 12.1272C87.8312 11.9494 87.9885 11.7305 88.0979 11.4706C88.221 11.2107 88.2826 10.9097 88.2826 10.5677H90.745C90.745 11.2517 90.6218 11.8468 90.3756 12.3529C90.1431 12.8591 89.8079 13.2763 89.3701 13.6047C88.9461 13.933 88.4467 14.1792 87.8722 14.3434C87.2976 14.5075 86.6752 14.5896 86.0049 14.5896ZM83.4399 7.79754H88.1389C88.1389 7.3461 88.0842 6.96306 87.9748 6.64842C87.879 6.33379 87.7354 6.07387 87.5439 5.86867C87.366 5.66347 87.1472 5.51983 86.8872 5.43775C86.6273 5.34199 86.3332 5.29411 86.0049 5.29411C85.4714 5.29411 85.0199 5.38303 84.6506 5.56087C84.2949 5.73871 84.0213 6.01231 83.8298 6.38167C83.6383 6.75102 83.5083 7.22298 83.4399 7.79754Z" fill="var(--fill-0, white)"/>
<path id="Vector_6" d="M71.0285 18.078C70.5497 18.078 70.0983 17.9822 69.6742 17.7907C69.2501 17.5992 68.9081 17.3119 68.6482 16.9289C68.3883 16.5595 68.2583 16.1012 68.2583 15.554C68.2583 14.9521 68.4294 14.4802 68.7713 14.1382C69.127 13.7825 69.5169 13.5157 69.941 13.3379C69.6263 13.1737 69.3664 12.9549 69.1612 12.6813C68.9697 12.4077 68.8739 12.0793 68.8739 11.6963C68.8739 11.1765 69.0655 10.7661 69.4485 10.4651C69.8315 10.1505 70.2693 9.94528 70.7618 9.84952C70.2556 9.53489 69.8657 9.13133 69.5921 8.63885C69.3322 8.14638 69.2023 7.5855 69.2023 6.95623C69.2023 6.20383 69.3801 5.56088 69.7358 5.02736C70.1051 4.48017 70.6387 4.05609 71.3363 3.75513C72.034 3.45417 72.8753 3.30369 73.8603 3.30369C74.257 3.30369 74.64 3.33105 75.0094 3.38577C75.3787 3.44049 75.7139 3.52257 76.0149 3.63201C76.4936 3.34473 76.822 3.02326 76.9998 2.66758C77.1776 2.29822 77.2734 1.99726 77.2871 1.76471H79.7289C79.7289 2.2435 79.6332 2.66758 79.4417 3.03694C79.2638 3.40629 79.0107 3.71409 78.6824 3.96033C78.3541 4.19289 77.9574 4.36389 77.4923 4.47333C77.8343 4.77428 78.0942 5.1368 78.272 5.56088C78.4499 5.98495 78.5388 6.45007 78.5388 6.95623C78.5388 7.70862 78.361 8.35842 78.0053 8.90561C77.6633 9.45281 77.1503 9.87688 76.4663 10.1778C75.796 10.4788 74.9683 10.6293 73.9834 10.6293H72.3213C72.034 10.6293 71.8083 10.6908 71.6441 10.814C71.4936 10.9371 71.4184 11.1081 71.4184 11.327C71.4184 11.5048 71.4868 11.6621 71.6236 11.7989C71.7741 11.9357 71.9793 12.0041 72.2392 12.0041H76.9588C77.7659 12.0041 78.4293 12.2709 78.9492 12.8044C79.4827 13.3242 79.7495 13.9945 79.7495 14.8153C79.7495 15.4309 79.5853 15.985 79.257 16.4774C78.9423 16.9699 78.4978 17.3598 77.9232 17.6471C77.3486 17.9343 76.6783 18.078 75.9122 18.078H71.0285ZM71.9314 16.2722H75.8917C76.1516 16.2722 76.3774 16.2244 76.5689 16.1286C76.7741 16.0465 76.9314 15.9234 77.0408 15.7592C77.164 15.5951 77.2255 15.4104 77.2255 15.2052C77.2255 14.8495 77.1092 14.5828 76.8767 14.4049C76.6578 14.2271 76.3842 14.1382 76.0559 14.1382H71.9314C71.6031 14.1382 71.3295 14.2339 71.1106 14.4254C70.8917 14.6306 70.7823 14.8906 70.7823 15.2052C70.7823 15.5198 70.8849 15.7729 71.0901 15.9644C71.309 16.1696 71.5894 16.2722 71.9314 16.2722ZM73.8808 8.86457C74.6058 8.86457 75.1462 8.70041 75.5019 8.3721C75.8712 8.0301 76.0559 7.55814 76.0559 6.95623C76.0559 6.35431 75.8712 5.88919 75.5019 5.56088C75.1462 5.23256 74.6058 5.0684 73.8808 5.0684C73.1558 5.0684 72.6086 5.23256 72.2392 5.56088C71.8835 5.88919 71.7057 6.35431 71.7057 6.95623C71.7057 7.35294 71.7809 7.69494 71.9314 7.98222C72.0956 8.2695 72.335 8.48837 72.6496 8.63885C72.9779 8.78933 73.3883 8.86457 73.8808 8.86457Z" fill="var(--fill-0, white)"/>
<path id="Vector_7" d="M61.8091 14.3434V3.54993H63.9021L64.1073 5.25308H64.2509C64.3877 4.91108 64.5519 4.59644 64.7434 4.30916C64.9486 4.0082 65.2085 3.76881 65.5232 3.59097C65.8378 3.39945 66.2208 3.30369 66.6723 3.30369C66.8912 3.30369 67.0895 3.32421 67.2674 3.36525C67.4589 3.40629 67.6025 3.44733 67.6983 3.48837V5.84815H66.939C66.515 5.84815 66.1388 5.90971 65.8105 6.03283C65.4821 6.14227 65.2017 6.32011 64.9691 6.56635C64.7503 6.81258 64.5861 7.12038 64.4767 7.48974C64.3672 7.85909 64.3125 8.29001 64.3125 8.78249V14.3434H61.8091Z" fill="var(--fill-0, white)"/>
<path id="Vector_8" d="M54.9443 14.5896C53.7952 14.5896 52.8376 14.3912 52.0716 13.9945C51.3055 13.5841 50.7309 12.9617 50.3479 12.1272C49.9649 11.2927 49.7733 10.2326 49.7733 8.94665C49.7733 7.64706 49.9649 6.58687 50.3479 5.76607C50.7309 4.9316 51.3055 4.316 52.0716 3.91929C52.8376 3.50889 53.7952 3.30369 54.9443 3.30369C55.984 3.30369 56.8527 3.50205 57.5504 3.89877C58.2617 4.2818 58.7952 4.87688 59.1509 5.68399C59.5066 6.49111 59.6844 7.53762 59.6844 8.82353V9.56224H52.3383C52.3657 10.2326 52.4683 10.8003 52.6461 11.2654C52.824 11.7168 53.0976 12.0588 53.4669 12.2914C53.85 12.5103 54.3493 12.6197 54.9649 12.6197C55.2795 12.6197 55.5736 12.5787 55.8472 12.4966C56.1208 12.4145 56.3602 12.2914 56.5654 12.1272C56.7706 11.9494 56.9279 11.7305 57.0374 11.4706C57.1605 11.2107 57.222 10.9097 57.222 10.5677H59.6844C59.6844 11.2517 59.5613 11.8468 59.3151 12.3529C59.0825 12.8591 58.7474 13.2763 58.3096 13.6047C57.8855 13.933 57.3862 14.1792 56.8116 14.3434C56.2371 14.5075 55.6147 14.5896 54.9443 14.5896ZM52.3794 7.79754H57.0784C57.0784 7.3461 57.0237 6.96306 56.9142 6.64842C56.8185 6.33379 56.6748 6.07387 56.4833 5.86867C56.3055 5.66347 56.0866 5.51983 55.8267 5.43775C55.5668 5.34199 55.2727 5.29411 54.9443 5.29411C54.4108 5.29411 53.9594 5.38303 53.59 5.56087C53.2344 5.73871 52.9608 6.01231 52.7692 6.38167C52.5777 6.75102 52.4478 7.22298 52.3794 7.79754Z" fill="var(--fill-0, white)"/>
<path id="Vector_9" d="M42.2162 14.3434L38.2148 3.54994H40.8414L42.5856 8.41315C42.6676 8.6457 42.7634 8.96034 42.8728 9.35706C42.996 9.7401 43.1191 10.1437 43.2422 10.5677C43.3653 10.9781 43.4679 11.3543 43.55 11.6963H43.6526C43.7347 11.3817 43.8304 11.0192 43.9399 10.6088C44.0493 10.1984 44.1588 9.79482 44.2682 9.3981C44.3913 9.00138 44.5008 8.67306 44.5965 8.41315L46.3202 3.54994H48.8646L44.8428 14.3434H42.2162Z" fill="var(--fill-0, white)"/>
<path id="Vector_10" d="M27.4629 14.3434V3.54993H29.5559L29.7611 4.98632H29.9048C30.151 4.658 30.4383 4.37072 30.7666 4.12448C31.1086 3.86457 31.4916 3.66621 31.9157 3.52941C32.3535 3.37893 32.8322 3.30369 33.3521 3.30369C34.0361 3.30369 34.638 3.42681 35.1578 3.67305C35.6913 3.91929 36.1086 4.316 36.4095 4.8632C36.7105 5.41039 36.861 6.14227 36.861 7.05882V14.3434H34.337V7.51026C34.337 7.12722 34.2892 6.81258 34.1934 6.56635C34.1113 6.30643 33.9814 6.10123 33.8035 5.95075C33.6394 5.78659 33.4342 5.67031 33.1879 5.60191C32.9417 5.53351 32.6681 5.49931 32.3671 5.49931C31.9157 5.49931 31.5053 5.60875 31.1359 5.82763C30.7803 6.04651 30.493 6.34747 30.2741 6.7305C30.0689 7.11354 29.9663 7.55814 29.9663 8.06429V14.3434H27.4629Z" fill="var(--fill-0, white)"/>
<path id="Vector_11" d="M20.0004 14.5896C18.824 14.5896 17.839 14.3912 17.0456 13.9945C16.2522 13.5841 15.6571 12.9617 15.2604 12.1272C14.8636 11.2927 14.6653 10.2326 14.6653 8.94665C14.6653 7.64706 14.8636 6.58687 15.2604 5.76607C15.6571 4.9316 16.2522 4.316 17.0456 3.91929C17.839 3.50889 18.824 3.30369 20.0004 3.30369C21.1906 3.30369 22.1755 3.50889 22.9553 3.91929C23.7487 4.316 24.3438 4.9316 24.7405 5.76607C25.1372 6.58687 25.3356 7.64706 25.3356 8.94665C25.3356 10.2326 25.1372 11.2927 24.7405 12.1272C24.3438 12.9617 23.7487 13.5841 22.9553 13.9945C22.1755 14.3912 21.1906 14.5896 20.0004 14.5896ZM20.0004 12.5376C20.6571 12.5376 21.1838 12.4145 21.5805 12.1683C21.9909 11.9083 22.285 11.5253 22.4628 11.0192C22.6543 10.4993 22.7501 9.85636 22.7501 9.09029V8.80301C22.7501 8.03693 22.6543 7.40082 22.4628 6.89466C22.285 6.37483 21.9909 5.99179 21.5805 5.74555C21.1838 5.48563 20.6571 5.35567 20.0004 5.35567C19.3438 5.35567 18.8103 5.48563 18.3999 5.74555C18.0032 5.99179 17.7091 6.37483 17.5175 6.89466C17.3397 7.40082 17.2508 8.03693 17.2508 8.80301V9.09029C17.2508 9.85636 17.3397 10.4993 17.5175 11.0192C17.7091 11.5253 18.0032 11.9083 18.3999 12.1683C18.8103 12.4145 19.3438 12.5376 20.0004 12.5376Z" fill="var(--fill-0, white)"/>
<path id="Vector_12" d="M6.83311 14.5896C5.39672 14.5896 4.16553 14.3365 3.13954 13.8304C2.12722 13.3242 1.34747 12.5376 0.800274 11.4706C0.266758 10.3899 0 9.00138 0 7.30507C0 4.82901 0.601915 2.9959 1.80575 1.80575C3.00958 0.615602 4.68536 0.0205261 6.83311 0.0205261C7.9959 0.0205261 9.04241 0.218884 9.97264 0.615601C10.9166 1.01232 11.6621 1.61423 12.2093 2.42135C12.7702 3.21478 13.0506 4.22709 13.0506 5.45828H10.3215C10.3215 4.77429 10.171 4.19973 9.87004 3.73462C9.58276 3.25582 9.17921 2.8933 8.65937 2.64707C8.13954 2.40083 7.54446 2.27771 6.87415 2.27771C5.94391 2.27771 5.171 2.46239 4.5554 2.83174C3.93981 3.18742 3.48153 3.72094 3.18058 4.43229C2.8933 5.14365 2.74966 6.026 2.74966 7.07935V7.53079C2.74966 8.59782 2.8933 9.48701 3.18058 10.1984C3.48153 10.9097 3.93297 11.4432 4.53488 11.7989C5.15048 12.1546 5.93023 12.3324 6.87415 12.3324C7.5855 12.3324 8.20794 12.2162 8.74145 11.9836C9.27497 11.7374 9.68536 11.3817 9.97264 10.9166C10.2736 10.4378 10.4241 9.85637 10.4241 9.17238H13.0506C13.0506 10.4036 12.777 11.4227 12.2298 12.2298C11.6826 13.0233 10.9371 13.6183 9.99316 14.0151C9.06293 14.3981 8.00958 14.5896 6.83311 14.5896Z" fill="var(--fill-0, white)"/>
</g>
</svg>
