<svg preserveAspectRatio="none" width="100%" height="100%" overflow="visible" style="display: block;" viewBox="0 0 16.8107 13.0607" fill="none" xmlns="http://www.w3.org/2000/svg">
<path id="Vector 9" d="M1.06066 6.53033L0.53033 6L0 6.53033L0.53033 7.06066L1.06066 6.53033ZM16.0607 7.28033C16.4749 7.28033 16.8107 6.94454 16.8107 6.53033C16.8107 6.11612 16.4749 5.78033 16.0607 5.78033V6.53033V7.28033ZM7.06066 0.53033L6.53033 0L0.53033 6L1.06066 6.53033L1.59099 7.06066L7.59099 1.06066L7.06066 0.53033ZM1.06066 6.53033L0.53033 7.06066L6.53033 13.0607L7.06066 12.5303L7.59099 12L1.59099 6L1.06066 6.53033ZM1.06066 6.53033V7.28033H16.0607V6.53033V5.78033H1.06066V6.53033Z" fill="var(--stroke-0, white)"/>
</svg>
